<svg version="1.1" viewBox="0.0 0.0 785.2729658792651 487.2204724409449" fill="none" stroke="none" stroke-linecap="square" stroke-miterlimit="10" xmlns:xlink="http://www.w3.org/1999/xlink" xmlns="http://www.w3.org/2000/svg"><clipPath id="p.0"><path d="m0 0l785.27295 0l0 487.22046l-785.27295 0l0 -487.22046z" clip-rule="nonzero"/></clipPath><g clip-path="url(#p.0)"><path fill="#000000" fill-opacity="0.0" d="m0 0l785.27295 0l0 487.22046l-785.27295 0z" fill-rule="evenodd"/><path fill="#000000" fill-opacity="0.0" d="m102.91076 140.90419l135.2756 125.54332" fill-rule="evenodd"/><path stroke="#b7b7b7" stroke-width="3.0" stroke-linejoin="round" stroke-linecap="butt" d="m102.91076 140.90419l135.2756 125.54332" fill-rule="evenodd"/><path fill="#000000" fill-opacity="0.0" d="m102.91076 140.90419l135.3071 189.10237" fill-rule="evenodd"/><path stroke="#b7b7b7" stroke-width="3.0" stroke-linejoin="round" stroke-linecap="butt" d="m102.91076 140.90419l135.3071 189.10237" fill-rule="evenodd"/><path fill="#000000" fill-opacity="0.0" d="m102.91076 140.90419l135.37009 252.66142" fill-rule="evenodd"/><path stroke="#b7b7b7" stroke-width="3.0" stroke-linejoin="round" stroke-linecap="butt" d="m102.91076 140.90419l135.37009 252.66142" fill-rule="evenodd"/><path fill="#000000" fill-opacity="0.0" d="m102.97243 203.3978l135.2126 63.02362" fill-rule="evenodd"/><path stroke="#b7b7b7" stroke-width="3.0" stroke-linejoin="round" stroke-linecap="butt" d="m102.97243 203.3978l135.2126 63.02362" fill-rule="evenodd"/><path fill="#000000" fill-opacity="0.0" d="m102.97243 203.3978l135.2441 126.61417" fill-rule="evenodd"/><path stroke="#b7b7b7" stroke-width="3.0" stroke-linejoin="round" stroke-linecap="butt" d="m102.97243 203.3978l135.2441 126.61417" fill-rule="evenodd"/><path fill="#000000" fill-opacity="0.0" d="m102.97243 203.3978l135.30708 190.17322" fill-rule="evenodd"/><path stroke="#b7b7b7" stroke-width="3.0" stroke-linejoin="round" stroke-linecap="butt" d="m102.97243 203.3978l135.30708 190.17322" fill-rule="evenodd"/><path fill="#000000" fill-opacity="0.0" d="m102.97243 203.3978l135.2441 -0.5354309" fill-rule="evenodd"/><path stroke="#1d1c1d" stroke-width="3.0" stroke-linejoin="round" stroke-linecap="butt" d="m102.97243 203.3978l135.2441 -0.5354309" fill-rule="evenodd"/><path fill="#000000" fill-opacity="0.0" d="m51.918636 140.90419l0 0c0 -14.507256 11.414974 -26.267715 25.49606 -26.267715l0 0c6.761978 0 13.247002 2.7674866 18.028442 7.6936417c4.7814407 4.9261475 7.467621 11.607445 7.467621 18.574074l0 0c0 14.507263 -11.41497 26.267715 -25.496063 26.267715l0 0c-14.081085 0 -25.49606 -11.760452 -25.49606 -26.267715z" fill-rule="evenodd"/><path stroke="#000000" stroke-width="3.0" stroke-linejoin="round" stroke-linecap="butt" d="m51.918636 140.90419l0 0c0 -14.507256 11.414974 -26.267715 25.49606 -26.267715l0 0c6.761978 0 13.247002 2.7674866 18.028442 7.6936417c4.7814407 4.9261475 7.467621 11.607445 7.467621 18.574074l0 0c0 14.507263 -11.41497 26.267715 -25.496063 26.267715l0 0c-14.081085 0 -25.49606 -11.760452 -25.49606 -26.267715z" fill-rule="evenodd"/><path fill="#000000" fill-opacity="0.0" d="m102.91076 140.90419l135.3071 61.95276" fill-rule="evenodd"/><path stroke="#1d1c1d" stroke-width="3.0" stroke-linejoin="round" stroke-linecap="butt" d="m102.91076 140.90419l135.3071 61.95276" fill-rule="evenodd"/><path fill="#000000" fill-opacity="0.0" d="m51.9803 203.3978l0 0c0 -14.507263 11.414978 -26.267715 25.496063 -26.267715l0 0c6.761978 0 13.247002 2.7674866 18.028442 7.693634c4.7814407 4.9261475 7.467621 11.607452 7.467621 18.574081l0 0c0 14.507263 -11.414978 26.267715 -25.496063 26.267715l0 0c-14.081085 0 -25.496063 -11.760452 -25.496063 -26.267715z" fill-rule="evenodd"/><path stroke="#000000" stroke-width="3.0" stroke-linejoin="round" stroke-linecap="butt" d="m51.9803 203.3978l0 0c0 -14.507263 11.414978 -26.267715 25.496063 -26.267715l0 0c6.761978 0 13.247002 2.7674866 18.028442 7.693634c4.7814407 4.9261475 7.467621 11.607452 7.467621 18.574081l0 0c0 14.507263 -11.414978 26.267715 -25.496063 26.267715l0 0c-14.081085 0 -25.496063 -11.760452 -25.496063 -26.267715z" fill-rule="evenodd"/><path fill="#000000" fill-opacity="0.0" d="m103.034096 390.8786l135.1496 -124.44095" fill-rule="evenodd"/><path stroke="#b7b7b7" stroke-width="3.0" stroke-linejoin="round" stroke-linecap="butt" d="m103.034096 390.8786l135.1496 -124.44095" fill-rule="evenodd"/><path fill="#000000" fill-opacity="0.0" d="m103.034096 390.8786l135.21259 -60.881897" fill-rule="evenodd"/><path stroke="#b7b7b7" stroke-width="3.0" stroke-linejoin="round" stroke-linecap="butt" d="m103.034096 390.8786l135.21259 -60.881897" fill-rule="evenodd"/><path fill="#000000" fill-opacity="0.0" d="m103.034096 390.8786l135.24408 2.6771545" fill-rule="evenodd"/><path stroke="#b7b7b7" stroke-width="3.0" stroke-linejoin="round" stroke-linecap="butt" d="m103.034096 390.8786l135.24408 2.6771545" fill-rule="evenodd"/><path fill="#000000" fill-opacity="0.0" d="m103.064926 453.3722l135.11812 -186.92914" fill-rule="evenodd"/><path stroke="#b7b7b7" stroke-width="3.0" stroke-linejoin="round" stroke-linecap="butt" d="m103.064926 453.3722l135.11812 -186.92914" fill-rule="evenodd"/><path fill="#000000" fill-opacity="0.0" d="m103.064926 453.3722l135.1811 -123.37009" fill-rule="evenodd"/><path stroke="#b7b7b7" stroke-width="3.0" stroke-linejoin="round" stroke-linecap="butt" d="m103.064926 453.3722l135.1811 -123.37009" fill-rule="evenodd"/><path fill="#000000" fill-opacity="0.0" d="m103.064926 453.3722l135.2126 -59.811035" fill-rule="evenodd"/><path stroke="#b7b7b7" stroke-width="3.0" stroke-linejoin="round" stroke-linecap="butt" d="m103.064926 453.3722l135.2126 -59.811035" fill-rule="evenodd"/><path fill="#000000" fill-opacity="0.0" d="m52.04197 390.8786l0 0c0 -14.507263 11.414974 -26.26773 25.496063 -26.26773l0 0c6.761978 0 13.247002 2.7674866 18.028435 7.693634c4.7814407 4.9261475 7.4676285 11.607452 7.4676285 18.574097l0 0c0 14.507263 -11.414978 26.2677 -25.496063 26.2677l0 0c-14.081089 0 -25.496063 -11.760437 -25.496063 -26.2677z" fill-rule="evenodd"/><path stroke="#000000" stroke-width="3.0" stroke-linejoin="round" stroke-linecap="butt" d="m52.04197 390.8786l0 0c0 -14.507263 11.414974 -26.26773 25.496063 -26.26773l0 0c6.761978 0 13.247002 2.7674866 18.028435 7.693634c4.7814407 4.9261475 7.4676285 11.607452 7.4676285 18.574097l0 0c0 14.507263 -11.414978 26.2677 -25.496063 26.2677l0 0c-14.081089 0 -25.496063 -11.760437 -25.496063 -26.2677z" fill-rule="evenodd"/><path fill="#000000" fill-opacity="0.0" d="m52.072803 453.3722l0 0c0 -14.507263 11.414974 -26.2677 25.49606 -26.2677l0 0c6.761978 0 13.247002 2.767456 18.028442 7.693634c4.7814407 4.9261475 7.467621 11.607422 7.467621 18.574066l0 0c0 14.507263 -11.41497 26.26773 -25.496063 26.26773l0 0c-14.081085 0 -25.49606 -11.760468 -25.49606 -26.26773z" fill-rule="evenodd"/><path stroke="#000000" stroke-width="3.0" stroke-linejoin="round" stroke-linecap="butt" d="m52.072803 453.3722l0 0c0 -14.507263 11.414974 -26.2677 25.49606 -26.2677l0 0c6.761978 0 13.247002 2.767456 18.028442 7.693634c4.7814407 4.9261475 7.467621 11.607422 7.467621 18.574066l0 0c0 14.507263 -11.41497 26.26773 -25.496063 26.26773l0 0c-14.081085 0 -25.49606 -11.760468 -25.49606 -26.26773z" fill-rule="evenodd"/><path fill="#000000" fill-opacity="0.0" d="m102.91076 328.38498l135.2756 -61.95273" fill-rule="evenodd"/><path stroke="#b7b7b7" stroke-width="3.0" stroke-linejoin="round" stroke-linecap="butt" d="m102.91076 328.38498l135.2756 -61.95273" fill-rule="evenodd"/><path fill="#000000" fill-opacity="0.0" d="m102.91076 328.38498l135.3071 1.6063232" fill-rule="evenodd"/><path stroke="#b7b7b7" stroke-width="3.0" stroke-linejoin="round" stroke-linecap="butt" d="m102.91076 328.38498l135.3071 1.6063232" fill-rule="evenodd"/><path fill="#000000" fill-opacity="0.0" d="m102.91076 328.38498l135.37009 65.19687" fill-rule="evenodd"/><path stroke="#b7b7b7" stroke-width="3.0" stroke-linejoin="round" stroke-linecap="butt" d="m102.91076 328.38498l135.37009 65.19687" fill-rule="evenodd"/><path fill="#000000" fill-opacity="0.0" d="m51.918636 328.38498l0 0c0 -14.507233 11.414974 -26.2677 25.49606 -26.2677l0 0c6.761978 0 13.247002 2.7674866 18.028442 7.693634c4.7814407 4.9261475 7.467621 11.607452 7.467621 18.574066l0 0c0 14.507263 -11.41497 26.26773 -25.496063 26.26773l0 0c-14.081085 0 -25.49606 -11.760468 -25.49606 -26.26773z" fill-rule="evenodd"/><path stroke="#000000" stroke-width="3.0" stroke-linejoin="round" stroke-linecap="butt" d="m51.918636 328.38498l0 0c0 -14.507233 11.414974 -26.2677 25.49606 -26.2677l0 0c6.761978 0 13.247002 2.7674866 18.028442 7.693634c4.7814407 4.9261475 7.467621 11.607452 7.467621 18.574066l0 0c0 14.507263 -11.41497 26.26773 -25.496063 26.26773l0 0c-14.081085 0 -25.49606 -11.760468 -25.49606 -26.26773z" fill-rule="evenodd"/><path fill="#000000" fill-opacity="0.0" d="m103.003265 265.8914l135.1811 0.5354309" fill-rule="evenodd"/><path stroke="#b7b7b7" stroke-width="3.0" stroke-linejoin="round" stroke-linecap="butt" d="m103.003265 265.8914l135.1811 0.5354309" fill-rule="evenodd"/><path fill="#000000" fill-opacity="0.0" d="m103.003265 265.8914l135.2126 64.09448" fill-rule="evenodd"/><path stroke="#b7b7b7" stroke-width="3.0" stroke-linejoin="round" stroke-linecap="butt" d="m103.003265 265.8914l135.2126 64.09448" fill-rule="evenodd"/><path fill="#000000" fill-opacity="0.0" d="m103.003265 265.8914l135.27559 127.68506" fill-rule="evenodd"/><path stroke="#b7b7b7" stroke-width="3.0" stroke-linejoin="round" stroke-linecap="butt" d="m103.003265 265.8914l135.27559 127.68506" fill-rule="evenodd"/><path fill="#000000" fill-opacity="0.0" d="m103.034096 390.8786l135.18109 -188.0" fill-rule="evenodd"/><path stroke="#1d1c1d" stroke-width="3.0" stroke-linejoin="round" stroke-linecap="butt" d="m103.034096 390.8786l135.18109 -188.0" fill-rule="evenodd"/><path fill="#000000" fill-opacity="0.0" d="m103.064926 453.3722l135.14961 -250.48819" fill-rule="evenodd"/><path stroke="#1d1c1d" stroke-width="3.0" stroke-linejoin="round" stroke-linecap="butt" d="m103.064926 453.3722l135.14961 -250.48819" fill-rule="evenodd"/><path fill="#000000" fill-opacity="0.0" d="m102.91076 328.38498l135.3071 -125.511795" fill-rule="evenodd"/><path stroke="#1d1c1d" stroke-width="3.0" stroke-linejoin="round" stroke-linecap="butt" d="m102.91076 328.38498l135.3071 -125.511795" fill-rule="evenodd"/><path fill="#000000" fill-opacity="0.0" d="m445.53955 202.8202l0 0c0 -14.698593 11.436127 -26.614166 25.543304 -26.614166l0 0c6.7745056 0 13.271545 2.8039856 18.061829 7.795105c4.7903137 4.9911346 7.481476 11.760544 7.481476 18.819061l0 0c0 14.698608 -11.436127 26.614182 -25.543304 26.614182l0 0c-14.107178 0 -25.543304 -11.915573 -25.543304 -26.614182z" fill-rule="evenodd"/><path stroke="#000000" stroke-width="3.0" stroke-linejoin="round" stroke-linecap="butt" d="m445.53955 202.8202l0 0c0 -14.698593 11.436127 -26.614166 25.543304 -26.614166l0 0c6.7745056 0 13.271545 2.8039856 18.061829 7.795105c4.7903137 4.9911346 7.481476 11.760544 7.481476 18.819061l0 0c0 14.698608 -11.436127 26.614182 -25.543304 26.614182l0 0c-14.107178 0 -25.543304 -11.915573 -25.543304 -26.614182z" fill-rule="evenodd"/><path fill="#000000" fill-opacity="0.0" d="m471.05136 202.66273l21.13385 0.1574707" fill-rule="evenodd"/><path stroke="#000000" stroke-width="3.0" stroke-linejoin="round" stroke-linecap="butt" d="m471.05136 202.66273l21.13385 0.1574707" fill-rule="evenodd"/><path fill="#000000" fill-opacity="0.0" d="m445.56213 329.94812l0 0c0 -14.698608 11.450226 -26.614166 25.574799 -26.614166l0 0c6.7828674 0 13.287903 2.8039856 18.084106 7.795105c4.7962036 4.9911194 7.490692 11.760529 7.490692 18.819061l0 0c0 14.698608 -11.450226 26.614166 -25.574799 26.614166l0 0c-14.124573 0 -25.574799 -11.915558 -25.574799 -26.614166z" fill-rule="evenodd"/><path stroke="#b7b7b7" stroke-width="3.0" stroke-linejoin="round" stroke-linecap="butt" d="m445.56213 329.94812l0 0c0 -14.698608 11.450226 -26.614166 25.574799 -26.614166l0 0c6.7828674 0 13.287903 2.8039856 18.084106 7.795105c4.7962036 4.9911194 7.490692 11.760529 7.490692 18.819061l0 0c0 14.698608 -11.450226 26.614166 -25.574799 26.614166l0 0c-14.124573 0 -25.574799 -11.915558 -25.574799 -26.614166z" fill-rule="evenodd"/><path fill="#000000" fill-opacity="0.0" d="m445.60135 393.51816l0 0c0 -14.698608 11.436127 -26.614166 25.543304 -26.614166l0 0c6.7745056 0 13.271545 2.8039856 18.061829 7.795105c4.7903137 4.9911194 7.481476 11.760559 7.481476 18.819061l0 0c0 14.698608 -11.436127 26.614166 -25.543304 26.614166l0 0c-14.107178 0 -25.543304 -11.915558 -25.543304 -26.614166z" fill-rule="evenodd"/><path stroke="#b7b7b7" stroke-width="3.0" stroke-linejoin="round" stroke-linecap="butt" d="m445.60135 393.51816l0 0c0 -14.698608 11.436127 -26.614166 25.543304 -26.614166l0 0c6.7745056 0 13.271545 2.8039856 18.061829 7.795105c4.7903137 4.9911194 7.481476 11.760559 7.481476 18.819061l0 0c0 14.698608 -11.436127 26.614166 -25.543304 26.614166l0 0c-14.107178 0 -25.543304 -11.915558 -25.543304 -26.614166z" fill-rule="evenodd"/><path fill="#000000" fill-opacity="0.0" d="m445.5254 266.38382l0 0c0 -14.698608 11.450226 -26.614182 25.574799 -26.614182l0 0c6.7828674 0 13.287903 2.8039856 18.084106 7.795105c4.7962036 4.9911346 7.490692 11.760544 7.490692 18.819077l0 0c0 14.698608 -11.450226 26.614166 -25.574799 26.614166l0 0c-14.124573 0 -25.574799 -11.915558 -25.574799 -26.614166z" fill-rule="evenodd"/><path stroke="#b7b7b7" stroke-width="3.0" stroke-linejoin="round" stroke-linecap="butt" d="m445.5254 266.38382l0 0c0 -14.698608 11.450226 -26.614182 25.574799 -26.614182l0 0c6.7828674 0 13.287903 2.8039856 18.084106 7.795105c4.7962036 4.9911346 7.490692 11.760544 7.490692 18.819077l0 0c0 14.698608 -11.450226 26.614166 -25.574799 26.614166l0 0c-14.124573 0 -25.574799 -11.915558 -25.574799 -26.614166z" fill-rule="evenodd"/><path fill="#000000" fill-opacity="0.0" d="m471.0372 266.4783l3.7480164 0" fill-rule="evenodd"/><path stroke="#000000" stroke-width="3.0" stroke-linejoin="round" stroke-linecap="butt" d="m471.0372 266.4783l3.7480164 0" fill-rule="evenodd"/><path fill="#000000" fill-opacity="0.0" d="m289.29544 202.87007l156.25198 -0.06298828" fill-rule="evenodd"/><path stroke="#000000" stroke-width="3.0" stroke-linejoin="round" stroke-linecap="butt" d="m289.29544 202.87007l156.25198 -0.06298828" fill-rule="evenodd"/><path fill="#000000" fill-opacity="0.0" d="m289.34427 266.4337l156.189 -0.06298828" fill-rule="evenodd"/><path stroke="#b7b7b7" stroke-width="3.0" stroke-linejoin="round" stroke-linecap="butt" d="m289.34427 266.4337l156.189 -0.06298828" fill-rule="evenodd"/><path fill="#000000" fill-opacity="0.0" d="m289.381 329.998l156.189 -0.06298828" fill-rule="evenodd"/><path stroke="#b7b7b7" stroke-width="3.0" stroke-linejoin="round" stroke-linecap="butt" d="m289.381 329.998l156.189 -0.06298828" fill-rule="evenodd"/><path fill="#000000" fill-opacity="0.0" d="m289.35724 393.56802l156.25198 -0.06298828" fill-rule="evenodd"/><path stroke="#b7b7b7" stroke-width="3.0" stroke-linejoin="round" stroke-linecap="butt" d="m289.35724 393.56802l156.25198 -0.06298828" fill-rule="evenodd"/><path fill="#000000" fill-opacity="0.0" d="m667.7721 329.95074l0 0c0 -14.698608 11.450256 -26.614166 25.57483 -26.614166l0 0c6.782837 0 13.287903 2.8039856 18.084106 7.795105c4.7962036 4.9911194 7.4906616 11.760529 7.4906616 18.819061l0 0c0 14.698608 -11.450195 26.614166 -25.574768 26.614166l0 0c-14.124573 0 -25.57483 -11.915558 -25.57483 -26.614166z" fill-rule="evenodd"/><path stroke="#b7b7b7" stroke-width="3.0" stroke-linejoin="round" stroke-linecap="butt" d="m667.7721 329.95074l0 0c0 -14.698608 11.450256 -26.614166 25.57483 -26.614166l0 0c6.782837 0 13.287903 2.8039856 18.084106 7.795105c4.7962036 4.9911194 7.4906616 11.760529 7.4906616 18.819061l0 0c0 14.698608 -11.450195 26.614166 -25.574768 26.614166l0 0c-14.124573 0 -25.57483 -11.915558 -25.57483 -26.614166z" fill-rule="evenodd"/><path fill="#000000" fill-opacity="0.0" d="m667.73535 266.38644l0 0c0 -14.698608 11.450256 -26.614182 25.57483 -26.614182l0 0c6.782837 0 13.287903 2.8039856 18.084106 7.795105c4.7962036 4.9911346 7.4906616 11.760544 7.4906616 18.819077l0 0c0 14.698608 -11.450195 26.614166 -25.574768 26.614166l0 0c-14.124573 0 -25.57483 -11.915558 -25.57483 -26.614166z" fill-rule="evenodd"/><path stroke="#000000" stroke-width="3.0" stroke-linejoin="round" stroke-linecap="butt" d="m667.73535 266.38644l0 0c0 -14.698608 11.450256 -26.614182 25.57483 -26.614182l0 0c6.782837 0 13.287903 2.8039856 18.084106 7.795105c4.7962036 4.9911346 7.4906616 11.760544 7.4906616 18.819077l0 0c0 14.698608 -11.450195 26.614166 -25.574768 26.614166l0 0c-14.124573 0 -25.57483 -11.915558 -25.57483 -26.614166z" fill-rule="evenodd"/><path fill="#000000" fill-opacity="0.0" d="m496.62616 202.8202l171.1181 63.559067" fill-rule="evenodd"/><path stroke="#000000" stroke-width="3.0" stroke-linejoin="round" stroke-linecap="butt" d="m496.62616 202.8202l171.1181 63.559067" fill-rule="evenodd"/><path fill="#000000" fill-opacity="0.0" d="m496.675 266.38382l171.05511 0" fill-rule="evenodd"/><path stroke="#b7b7b7" stroke-width="3.0" stroke-linejoin="round" stroke-linecap="butt" d="m496.675 266.38382l171.05511 0" fill-rule="evenodd"/><path fill="#000000" fill-opacity="0.0" d="m496.71173 329.94812l171.02362 -63.55905" fill-rule="evenodd"/><path stroke="#b7b7b7" stroke-width="3.0" stroke-linejoin="round" stroke-linecap="butt" stroke-dasharray="12.0,9.0" d="m496.71173 329.94812l171.02362 -63.55905" fill-rule="evenodd"/><path fill="#000000" fill-opacity="0.0" d="m238.19467 266.4337l0 0c0 -14.698608 11.450226 -26.614182 25.574799 -26.614182l0 0c6.7828674 0 13.287903 2.8039856 18.084137 7.7951202c4.7962036 4.9911194 7.4906616 11.760529 7.4906616 18.819061l0 0c0 14.698608 -11.450226 26.614166 -25.574799 26.614166l0 0c-14.124573 0 -25.574799 -11.915558 -25.574799 -26.614166z" fill-rule="evenodd"/><path stroke="#b7b7b7" stroke-width="3.0" stroke-linejoin="round" stroke-linecap="butt" d="m238.19467 266.4337l0 0c0 -14.698608 11.450226 -26.614182 25.574799 -26.614182l0 0c6.7828674 0 13.287903 2.8039856 18.084137 7.7951202c4.7962036 4.9911194 7.4906616 11.760529 7.4906616 18.819061l0 0c0 14.698608 -11.450226 26.614166 -25.574799 26.614166l0 0c-14.124573 0 -25.574799 -11.915558 -25.574799 -26.614166z" fill-rule="evenodd"/><path fill="#000000" fill-opacity="0.0" d="m496.68796 393.51816l171.05508 -127.1181" fill-rule="evenodd"/><path stroke="#b7b7b7" stroke-width="3.0" stroke-linejoin="round" stroke-linecap="butt" stroke-dasharray="12.0,9.0" d="m496.68796 393.51816l171.05508 -127.1181" fill-rule="evenodd"/><path fill="#000000" fill-opacity="0.0" d="m496.62616 202.8202l171.1496 127.11812" fill-rule="evenodd"/><path stroke="#000000" stroke-width="3.0" stroke-linejoin="round" stroke-linecap="butt" stroke-dasharray="12.0,9.0" d="m496.62616 202.8202l171.1496 127.11812" fill-rule="evenodd"/><path fill="#000000" fill-opacity="0.0" d="m496.675 266.38382l171.08661 63.55905" fill-rule="evenodd"/><path stroke="#b7b7b7" stroke-width="3.0" stroke-linejoin="round" stroke-linecap="butt" stroke-dasharray="12.0,9.0" d="m496.675 266.38382l171.08661 63.55905" fill-rule="evenodd"/><path fill="#000000" fill-opacity="0.0" d="m496.71173 329.94812l171.05511 0" fill-rule="evenodd"/><path stroke="#b7b7b7" stroke-width="3.0" stroke-linejoin="round" stroke-linecap="butt" d="m496.71173 329.94812l171.05511 0" fill-rule="evenodd"/><path fill="#000000" fill-opacity="0.0" d="m496.68796 393.51816l171.08658 -63.55905" fill-rule="evenodd"/><path stroke="#b7b7b7" stroke-width="3.0" stroke-linejoin="round" stroke-linecap="butt" d="m496.68796 393.51816l171.08658 -63.55905" fill-rule="evenodd"/><path fill="#000000" fill-opacity="0.0" d="m694.82196 266.41794l21.13385 -0.03149414" fill-rule="evenodd"/><path stroke="#000000" stroke-width="3.0" stroke-linejoin="round" stroke-linecap="butt" d="m694.82196 266.41794l21.13385 -0.03149414" fill-rule="evenodd"/><path fill="#d9d9d9" fill-opacity="0.478" d="m527.9383 169.02267l0 0c0 -9.993515 8.101379 -18.094849 18.094849 -18.094849l72.37726 0l0 0c4.7990723 0 9.40155 1.9064178 12.794983 5.2998505c3.3934326 3.3934479 5.2998657 7.995941 5.2998657 12.794998l0 256.34573c0 9.9935 -8.101318 18.094849 -18.094849 18.094849l-72.37726 0c-9.993469 0 -18.094849 -8.101349 -18.094849 -18.094849z" fill-rule="evenodd"/><path stroke="#000000" stroke-width="3.0" stroke-linejoin="round" stroke-linecap="butt" d="m527.9383 169.02267l0 0c0 -9.993515 8.101379 -18.094849 18.094849 -18.094849l72.37726 0l0 0c4.7990723 0 9.40155 1.9064178 12.794983 5.2998505c3.3934326 3.3934479 5.2998657 7.995941 5.2998657 12.794998l0 256.34573c0 9.9935 -8.101318 18.094849 -18.094849 18.094849l-72.37726 0c-9.993469 0 -18.094849 -8.101349 -18.094849 -18.094849z" fill-rule="evenodd"/><path fill="#000000" fill-opacity="0.0" d="m471.0359 330.2631l4.503937 0" fill-rule="evenodd"/><path stroke="#000000" stroke-width="3.0" stroke-linejoin="round" stroke-linecap="butt" d="m471.0359 330.2631l4.503937 0" fill-rule="evenodd"/><path fill="#000000" fill-opacity="0.0" d="m470.92697 393.24734l8.062988 0.28344727" fill-rule="evenodd"/><path stroke="#000000" stroke-width="3.0" stroke-linejoin="round" stroke-linecap="butt" d="m470.92697 393.24734l8.062988 0.28344727" fill-rule="evenodd"/><path fill="#d9d9d9" fill-opacity="0.478" d="m315.35425 169.46623l0 0c0 -9.700699 7.863983 -17.564651 17.564667 -17.564651l70.2565 0l0 0c4.6584473 0 9.126099 1.8505554 12.420105 5.144562c3.2940063 3.2940063 5.144562 7.7616577 5.144562 12.42009l0 257.40613c0 9.700684 -7.8639526 17.564667 -17.564667 17.564667l-70.2565 0c-9.700684 0 -17.564667 -7.863983 -17.564667 -17.564667z" fill-rule="evenodd"/><path stroke="#000000" stroke-width="3.0" stroke-linejoin="round" stroke-linecap="butt" d="m315.35425 169.46623l0 0c0 -9.700699 7.863983 -17.564651 17.564667 -17.564651l70.2565 0l0 0c4.6584473 0 9.126099 1.8505554 12.420105 5.144562c3.2940063 3.2940063 5.144562 7.7616577 5.144562 12.42009l0 257.40613c0 9.700684 -7.8639526 17.564667 -17.564667 17.564667l-70.2565 0c-9.700684 0 -17.564667 -7.863983 -17.564667 -17.564667z" fill-rule="evenodd"/><path fill="#000000" fill-opacity="0.0" d="m103.003265 265.8914l135.2126 -63.02362" fill-rule="evenodd"/><path stroke="#1d1c1d" stroke-width="3.0" stroke-linejoin="round" stroke-linecap="butt" d="m103.003265 265.8914l135.2126 -63.02362" fill-rule="evenodd"/><path fill="#ffffff" d="m162.37263 231.26903l0 0c0 -6.679596 5.386688 -12.094482 12.031494 -12.094482l0 0c3.1909485 0 6.2512054 1.274231 8.507553 3.542389c2.2563477 2.268158 3.523941 5.3444366 3.523941 8.5520935l0 0c0 6.679596 -5.386673 12.094482 -12.031494 12.094482l0 0c-6.644806 0 -12.031494 -5.4148865 -12.031494 -12.094482z" fill-rule="evenodd"/><path stroke="#000000" stroke-width="3.0" stroke-linejoin="round" stroke-linecap="butt" d="m162.37263 231.26903l0 0c0 -6.679596 5.386688 -12.094482 12.031494 -12.094482l0 0c3.1909485 0 6.2512054 1.274231 8.507553 3.542389c2.2563477 2.268158 3.523941 5.3444366 3.523941 8.5520935l0 0c0 6.679596 -5.386673 12.094482 -12.031494 12.094482l0 0c-6.644806 0 -12.031494 -5.4148865 -12.031494 -12.094482z" fill-rule="evenodd"/><path fill="#000000" fill-opacity="0.0" d="m174.38976 231.1902l10.393707 -1.6378021" fill-rule="evenodd"/><path stroke="#b5ff00" stroke-width="3.0" stroke-linejoin="round" stroke-linecap="butt" d="m174.38976 231.1902l10.393707 -1.6378021" fill-rule="evenodd"/><path fill="#ffffff" d="m162.35039 260.54547l0 0c0 -6.679611 5.386688 -12.094498 12.031509 -12.094498l0 0c3.1909485 0 6.2512054 1.2742462 8.507538 3.5424042c2.2563477 2.268158 3.5239563 5.3444214 3.5239563 8.5520935l0 0c0 6.679596 -5.386688 12.094482 -12.031494 12.094482l0 0c-6.644821 0 -12.031509 -5.4148865 -12.031509 -12.094482z" fill-rule="evenodd"/><path stroke="#000000" stroke-width="3.0" stroke-linejoin="round" stroke-linecap="butt" d="m162.35039 260.54547l0 0c0 -6.679611 5.386688 -12.094498 12.031509 -12.094498l0 0c3.1909485 0 6.2512054 1.2742462 8.507538 3.5424042c2.2563477 2.268158 3.5239563 5.3444214 3.5239563 8.5520935l0 0c0 6.679596 -5.386688 12.094482 -12.031494 12.094482l0 0c-6.644821 0 -12.031509 -5.4148865 -12.031509 -12.094482z" fill-rule="evenodd"/><path fill="#000000" fill-opacity="0.0" d="m174.36769 260.46045l6.4881897 -8.346451" fill-rule="evenodd"/><path stroke="#ffaa00" stroke-width="3.0" stroke-linejoin="round" stroke-linecap="butt" d="m174.36769 260.46045l6.4881897 -8.346451" fill-rule="evenodd"/><path fill="#000000" fill-opacity="0.0" d="m238.23141 329.998l0 0c0 -14.698608 11.450241 -26.614166 25.574799 -26.614166l0 0c6.7828674 0 13.287933 2.8039856 18.084137 7.795105c4.7962036 4.9911194 7.4906616 11.760559 7.4906616 18.819061l0 0c0 14.698608 -11.450226 26.614166 -25.574799 26.614166l0 0c-14.1245575 0 -25.574799 -11.915558 -25.574799 -26.614166z" fill-rule="evenodd"/><path stroke="#b7b7b7" stroke-width="3.0" stroke-linejoin="round" stroke-linecap="butt" d="m238.23141 329.998l0 0c0 -14.698608 11.450241 -26.614166 25.574799 -26.614166l0 0c6.7828674 0 13.287933 2.8039856 18.084137 7.795105c4.7962036 4.9911194 7.4906616 11.760559 7.4906616 18.819061l0 0c0 14.698608 -11.450226 26.614166 -25.574799 26.614166l0 0c-14.1245575 0 -25.574799 -11.915558 -25.574799 -26.614166z" fill-rule="evenodd"/><path fill="#000000" fill-opacity="0.0" d="m238.27063 393.56802l0 0c0 -14.698578 11.436127 -26.614166 25.543304 -26.614166l0 0c6.7745056 0 13.271545 2.8039856 18.06186 7.795105c4.790283 4.9911194 7.4814453 11.760559 7.4814453 18.819061l0 0c0 14.698608 -11.436127 26.614197 -25.543304 26.614197l0 0c-14.107178 0 -25.543304 -11.915588 -25.543304 -26.614197z" fill-rule="evenodd"/><path stroke="#b7b7b7" stroke-width="3.0" stroke-linejoin="round" stroke-linecap="butt" d="m238.27063 393.56802l0 0c0 -14.698578 11.436127 -26.614166 25.543304 -26.614166l0 0c6.7745056 0 13.271545 2.8039856 18.06186 7.795105c4.790283 4.9911194 7.4814453 11.760559 7.4814453 18.819061l0 0c0 14.698608 -11.436127 26.614197 -25.543304 26.614197l0 0c-14.107178 0 -25.543304 -11.915588 -25.543304 -26.614197z" fill-rule="evenodd"/><path fill="#ffffff" d="m162.74771 202.38316l0 0c0 -6.679611 5.386673 -12.094498 12.031494 -12.094498l0 0c3.1909485 0 6.2512054 1.2742462 8.507553 3.5424042c2.2563324 2.2681427 3.523941 5.3444366 3.523941 8.5520935l0 0c0 6.679596 -5.386688 12.094482 -12.031494 12.094482l0 0c-6.644821 0 -12.031494 -5.4148865 -12.031494 -12.094482z" fill-rule="evenodd"/><path stroke="#000000" stroke-width="3.0" stroke-linejoin="round" stroke-linecap="butt" d="m162.74771 202.38316l0 0c0 -6.679611 5.386673 -12.094498 12.031494 -12.094498l0 0c3.1909485 0 6.2512054 1.2742462 8.507553 3.5424042c2.2563324 2.2681427 3.523941 5.3444366 3.523941 8.5520935l0 0c0 6.679596 -5.386688 12.094482 -12.031494 12.094482l0 0c-6.644821 0 -12.031494 -5.4148865 -12.031494 -12.094482z" fill-rule="evenodd"/><path fill="#000000" fill-opacity="0.0" d="m174.60094 202.33704l6.8031464 2.0472412" fill-rule="evenodd"/><path stroke="#12ff00" stroke-width="3.0" stroke-linejoin="round" stroke-linecap="butt" d="m174.60094 202.33704l6.8031464 2.0472412" fill-rule="evenodd"/><path fill="#000000" fill-opacity="0.0" d="m77.47674 265.72018l6.67717 -25.165344" fill-rule="evenodd"/><path stroke="#ff6000" stroke-width="3.0" stroke-linejoin="round" stroke-linecap="butt" d="m77.47674 265.72018l6.67717 -25.165344" fill-rule="evenodd"/><path fill="#000000" fill-opacity="0.0" d="m77.38462 328.20035l-6.9606247 -24.188995" fill-rule="evenodd"/><path stroke="#ff0068" stroke-width="3.0" stroke-linejoin="round" stroke-linecap="butt" d="m77.38462 328.20035l-6.9606247 -24.188995" fill-rule="evenodd"/><path fill="#000000" fill-opacity="0.0" d="m265.10434 329.1896l-6.173218 -5.795288" fill-rule="evenodd"/><path stroke="#f800ff" stroke-width="3.0" stroke-linejoin="round" stroke-linecap="butt" d="m265.10434 329.1896l-6.173218 -5.795288" fill-rule="evenodd"/><path fill="#000000" fill-opacity="0.0" d="m263.80057 393.41214l11.118103 6.4252014" fill-rule="evenodd"/><path stroke="#09ff00" stroke-width="3.0" stroke-linejoin="round" stroke-linecap="butt" d="m263.80057 393.41214l11.118103 6.4252014" fill-rule="evenodd"/><path fill="#000000" fill-opacity="0.0" d="m264.61154 273.2021l0.50393677 -7.716522" fill-rule="evenodd"/><path stroke="#00e4ff" stroke-width="3.0" stroke-linejoin="round" stroke-linecap="butt" d="m264.61154 273.2021l0.50393677 -7.716522" fill-rule="evenodd"/><path fill="#000000" fill-opacity="0.0" d="m77.098595 203.2976l13.070862 -9.763779" fill-rule="evenodd"/><path stroke="#fbea00" stroke-width="3.0" stroke-linejoin="round" stroke-linecap="butt" d="m77.098595 203.2976l13.070862 -9.763779" fill-rule="evenodd"/><path fill="#ffffff" d="m161.84514 173.49606l0 0c0 -6.679611 5.386688 -12.094498 12.031509 -12.094498l0 0c3.1909485 0 6.2512054 1.2742462 8.507538 3.5424042c2.2563477 2.268158 3.5239563 5.3444366 3.5239563 8.5520935l0 0c0 6.679596 -5.386688 12.094482 -12.031494 12.094482l0 0c-6.644821 0 -12.031509 -5.4148865 -12.031509 -12.094482z" fill-rule="evenodd"/><path stroke="#000000" stroke-width="3.0" stroke-linejoin="round" stroke-linecap="butt" d="m161.84514 173.49606l0 0c0 -6.679611 5.386688 -12.094498 12.031509 -12.094498l0 0c3.1909485 0 6.2512054 1.2742462 8.507538 3.5424042c2.2563477 2.268158 3.5239563 5.3444366 3.5239563 8.5520935l0 0c0 6.679596 -5.386688 12.094482 -12.031494 12.094482l0 0c-6.644821 0 -12.031509 -5.4148865 -12.031509 -12.094482z" fill-rule="evenodd"/><path fill="#000000" fill-opacity="0.0" d="m173.81842 173.42596l1.6378021 2.5196838" fill-rule="evenodd"/><path stroke="#00ff63" stroke-width="3.0" stroke-linejoin="round" stroke-linecap="butt" d="m173.81842 173.42596l1.6378021 2.5196838" fill-rule="evenodd"/><path fill="#000000" fill-opacity="0.0" d="m262.8714 144.81496l209.16534 0l0 42.015747l-209.16534 0z" fill-rule="evenodd"/><path fill="#000000" d="m331.32358 167.3912l2.625 -0.25q0.234375 1.3125 0.953125 1.9375q0.734375 0.609375 1.96875 0.609375q1.296875 0 1.953125 -0.546875q0.671875 -0.546875 0.671875 -1.28125q0 -0.484375 -0.28125 -0.8125q-0.28125 -0.328125 -0.96875 -0.578125q-0.484375 -0.15625 -2.171875 -0.578125q-2.15625 -0.546875 -3.03125 -1.328125q-1.234375 -1.09375 -1.234375 -2.6875q0 -1.015625 0.578125 -1.90625q0.578125 -0.890625 1.65625 -1.34375q1.09375 -0.46875 2.640625 -0.46875q2.515625 0 3.78125 1.109375q1.28125 1.09375 1.34375 2.9375l-2.703125 0.109375q-0.171875 -1.03125 -0.75 -1.46875q-0.5625 -0.453125 -1.703125 -0.453125q-1.171875 0 -1.84375 0.46875q-0.421875 0.3125 -0.421875 0.84375q0 0.46875 0.40625 0.796875q0.5 0.4375 2.46875 0.90625q1.96875 0.453125 2.90625 0.953125q0.953125 0.5 1.484375 1.359375q0.53125 0.859375 0.53125 2.125q0 1.15625 -0.640625 2.15625q-0.640625 1.0 -1.8125 1.484375q-1.15625 0.484375 -2.890625 0.484375q-2.53125 0 -3.890625 -1.171875q-1.359375 -1.171875 -1.625 -3.40625zm12.521698 -0.625q0 -1.28125 0.625 -2.46875q0.625 -1.203125 1.78125 -1.828125q1.15625 -0.625 2.578125 -0.625q2.1875 0 3.59375 1.421875q1.40625 1.421875 1.40625 3.609375q0 2.1875 -1.421875 3.640625q-1.421875 1.4375 -3.5625 1.4375q-1.328125 0 -2.546875 -0.59375q-1.203125 -0.609375 -1.828125 -1.765625q-0.625 -1.171875 -0.625 -2.828125zm2.625 0.125q0 1.453125 0.671875 2.21875q0.6875 0.75 1.6875 0.75q1.0 0 1.671875 -0.75q0.6875 -0.765625 0.6875 -2.234375q0 -1.421875 -0.6875 -2.1875q-0.671875 -0.765625 -1.671875 -0.765625q-1.0 0 -1.6875 0.765625q-0.671875 0.765625 -0.671875 2.203125zm8.239716 -4.828125l1.421875 0l0 -0.734375q0 -1.21875 0.25 -1.8125q0.265625 -0.609375 0.953125 -0.984375q0.703125 -0.375 1.78125 -0.375q1.09375 0 2.140625 0.328125l-0.359375 1.78125q-0.609375 -0.140625 -1.171875 -0.140625q-0.546875 0 -0.796875 0.265625q-0.234375 0.25 -0.234375 0.984375l0 0.6875l1.90625 0l0 2.015625l-1.90625 0l0 7.65625l-2.5625 0l0 -7.65625l-1.421875 0l0 -2.015625zm11.775177 0l0 2.03125l-1.75 0l0 3.90625q0 1.1875 0.046875 1.390625q0.046875 0.1875 0.21875 0.3125q0.1875 0.125 0.4375 0.125q0.359375 0 1.03125 -0.25l0.21875 2.0q-0.890625 0.375 -2.015625 0.375q-0.703125 0 -1.265625 -0.234375q-0.546875 -0.234375 -0.8125 -0.59375q-0.25 -0.375 -0.34375 -1.0q-0.09375 -0.453125 -0.09375 -1.8125l0 -4.21875l-1.171875 0l0 -2.03125l1.171875 0l0 -1.921875l2.578125 -1.5l0 3.421875l1.75 0zm1.572052 0l2.359375 0l0 1.3125q1.265625 -1.53125 3.015625 -1.53125q0.9375 0 1.609375 0.390625q0.6875 0.375 1.125 1.140625q0.640625 -0.765625 1.375 -1.140625q0.75 -0.390625 1.578125 -0.390625q1.0625 0 1.796875 0.4375q0.75 0.421875 1.109375 1.265625q0.265625 0.625 0.265625 2.0l0 6.1875l-2.5625 0l0 -5.53125q0 -1.4375 -0.265625 -1.859375q-0.34375 -0.546875 -1.09375 -0.546875q-0.53125 0 -1.015625 0.328125q-0.46875 0.328125 -0.671875 0.96875q-0.203125 0.625 -0.203125 2.0l0 4.640625l-2.5625 0l0 -5.296875q0 -1.421875 -0.140625 -1.828125q-0.140625 -0.40625 -0.421875 -0.609375q-0.28125 -0.203125 -0.78125 -0.203125q-0.59375 0 -1.0625 0.328125q-0.46875 0.3125 -0.6875 0.921875q-0.203125 0.59375 -0.203125 1.984375l0 4.703125l-2.5625 0l0 -9.671875zm18.697784 2.953125l-2.328125 -0.421875q0.40625 -1.40625 1.359375 -2.078125q0.953125 -0.671875 2.84375 -0.671875q1.703125 0 2.546875 0.40625q0.84375 0.40625 1.171875 1.03125q0.34375 0.625 0.34375 2.28125l-0.015625 3.0q0 1.265625 0.109375 1.875q0.125 0.609375 0.46875 1.296875l-2.53125 0q-0.109375 -0.25 -0.25 -0.75q-0.0625 -0.234375 -0.09375 -0.3125q-0.65625 0.640625 -1.40625 0.96875q-0.734375 0.3125 -1.59375 0.3125q-1.484375 0 -2.34375 -0.8125q-0.859375 -0.8125 -0.859375 -2.046875q0 -0.828125 0.390625 -1.46875q0.390625 -0.640625 1.09375 -0.96875q0.703125 -0.34375 2.03125 -0.609375q1.796875 -0.328125 2.484375 -0.625l0 -0.25q0 -0.75 -0.359375 -1.0625q-0.359375 -0.3125 -1.375 -0.3125q-0.6875 0 -1.078125 0.28125q-0.375 0.265625 -0.609375 0.9375zm3.421875 2.078125q-0.484375 0.15625 -1.5625 0.390625q-1.0625 0.21875 -1.390625 0.4375q-0.5 0.359375 -0.5 0.90625q0 0.53125 0.40625 0.9375q0.40625 0.390625 1.015625 0.390625q0.703125 0 1.328125 -0.46875q0.46875 -0.34375 0.609375 -0.84375q0.09375 -0.328125 0.09375 -1.25l0 -0.5zm3.8132324 4.640625l3.484375 -4.984375l-3.34375 -4.6875l3.125 0l1.71875 2.65625l1.796875 -2.65625l3.015625 0l-3.28125 4.578125l3.578125 5.09375l-3.140625 0l-1.96875 -3.0l-1.984375 3.0l-3.0 0z" fill-rule="nonzero"/><path fill="#000000" fill-opacity="0.0" d="m77.291336 140.75197l6.1417313 0.06298828" fill-rule="evenodd"/><path stroke="#72e500" stroke-width="3.0" stroke-linejoin="round" stroke-linecap="butt" d="m77.291336 140.75197l6.1417313 0.06298828" fill-rule="evenodd"/><path fill="#ffffff" d="m162.3727 289.82114l0 0c0 -6.679596 5.386673 -12.094482 12.031494 -12.094482l0 0c3.1909485 0 6.2512054 1.274231 8.507553 3.542389c2.2563324 2.268158 3.523941 5.344452 3.523941 8.5520935l0 0c0 6.6796265 -5.386688 12.094513 -12.031494 12.094513l0 0c-6.644821 0 -12.031494 -5.4148865 -12.031494 -12.094513z" fill-rule="evenodd"/><path stroke="#000000" stroke-width="3.0" stroke-linejoin="round" stroke-linecap="butt" d="m162.3727 289.82114l0 0c0 -6.679596 5.386673 -12.094482 12.031494 -12.094482l0 0c3.1909485 0 6.2512054 1.274231 8.507553 3.542389c2.2563324 2.268158 3.523941 5.344452 3.523941 8.5520935l0 0c0 6.6796265 -5.386688 12.094513 -12.031494 12.094513l0 0c-6.644821 0 -12.031494 -5.4148865 -12.031494 -12.094513z" fill-rule="evenodd"/><path fill="#000000" fill-opacity="0.0" d="m174.19728 289.20374l1.1653442 -7.716522" fill-rule="evenodd"/><path stroke="#ff2f00" stroke-width="3.0" stroke-linejoin="round" stroke-linecap="butt" d="m174.19728 289.20374l1.1653442 -7.716522" fill-rule="evenodd"/><path fill="#000000" fill-opacity="0.0" d="m77.09957 389.53766l-13.921261 -8.976379" fill-rule="evenodd"/><path stroke="#ff00fb" stroke-width="3.0" stroke-linejoin="round" stroke-linecap="butt" d="m77.09957 389.53766l-13.921261 -8.976379" fill-rule="evenodd"/><path fill="#000000" fill-opacity="0.0" d="m52.011135 265.8914l0 0c0 -14.507248 11.414978 -26.267715 25.496067 -26.267715l0 0c6.7619705 0 13.246994 2.7674866 18.028435 7.693634c4.7814407 4.9261627 7.4676285 11.607468 7.4676285 18.574081l0 0c0 14.507263 -11.414978 26.26773 -25.496063 26.26773l0 0c-14.081089 0 -25.496067 -11.760468 -25.496067 -26.26773z" fill-rule="evenodd"/><path stroke="#000000" stroke-width="3.0" stroke-linejoin="round" stroke-linecap="butt" d="m52.011135 265.8914l0 0c0 -14.507248 11.414978 -26.267715 25.496067 -26.267715l0 0c6.7619705 0 13.246994 2.7674866 18.028435 7.693634c4.7814407 4.9261627 7.4676285 11.607468 7.4676285 18.574081l0 0c0 14.507263 -11.414978 26.26773 -25.496063 26.26773l0 0c-14.081089 0 -25.496067 -11.760468 -25.496067 -26.26773z" fill-rule="evenodd"/><path fill="#000000" fill-opacity="0.0" d="m78.18304 453.3092l-7.212593 0" fill-rule="evenodd"/><path stroke="#8000ff" stroke-width="3.0" stroke-linejoin="round" stroke-linecap="butt" d="m78.18304 453.3092l-7.212593 0" fill-rule="evenodd"/><path fill="#ffffff" d="m162.37366 319.4879l0 0c0 -6.679596 5.386688 -12.094482 12.031494 -12.094482l0 0c3.1909485 0 6.2512054 1.274231 8.507553 3.542389c2.2563477 2.268158 3.523941 5.3444214 3.523941 8.5520935l0 0c0 6.679596 -5.386688 12.094482 -12.031494 12.094482l0 0c-6.644806 0 -12.031494 -5.4148865 -12.031494 -12.094482z" fill-rule="evenodd"/><path stroke="#000000" stroke-width="3.0" stroke-linejoin="round" stroke-linecap="butt" d="m162.37366 319.4879l0 0c0 -6.679596 5.386688 -12.094482 12.031494 -12.094482l0 0c3.1909485 0 6.2512054 1.274231 8.507553 3.542389c2.2563477 2.268158 3.523941 5.3444214 3.523941 8.5520935l0 0c0 6.679596 -5.386688 12.094482 -12.031494 12.094482l0 0c-6.644806 0 -12.031494 -5.4148865 -12.031494 -12.094482z" fill-rule="evenodd"/><path fill="#000000" fill-opacity="0.0" d="m174.69498 319.45892l-1.6378021 -2.551178" fill-rule="evenodd"/><path stroke="#ff007b" stroke-width="3.0" stroke-linejoin="round" stroke-linecap="butt" d="m174.69498 319.45892l-1.6378021 -2.551178" fill-rule="evenodd"/><path fill="#000000" fill-opacity="0.0" d="m238.20883 202.87007l0 0c0 -14.698593 11.436127 -26.614166 25.543304 -26.614166l0 0c6.7745056 0 13.271545 2.8039856 18.06186 7.795105c4.790283 4.9911346 7.4814453 11.760544 7.4814453 18.819061l0 0c0 14.698608 -11.436127 26.614182 -25.543304 26.614182l0 0c-14.107178 0 -25.543304 -11.915573 -25.543304 -26.614182z" fill-rule="evenodd"/><path stroke="#000000" stroke-width="3.0" stroke-linejoin="round" stroke-linecap="butt" d="m238.20883 202.87007l0 0c0 -14.698593 11.436127 -26.614166 25.543304 -26.614166l0 0c6.7745056 0 13.271545 2.8039856 18.06186 7.795105c4.790283 4.9911346 7.4814453 11.760544 7.4814453 18.819061l0 0c0 14.698608 -11.436127 26.614182 -25.543304 26.614182l0 0c-14.107178 0 -25.543304 -11.915573 -25.543304 -26.614182z" fill-rule="evenodd"/><path fill="#000000" fill-opacity="0.0" d="m263.73526 202.72818l17.385803 -10.1102295" fill-rule="evenodd"/><path stroke="#ff9900" stroke-width="3.0" stroke-linejoin="round" stroke-linecap="butt" d="m263.73526 202.72818l17.385803 -10.1102295" fill-rule="evenodd"/><path fill="#000000" fill-opacity="0.0" d="m694.82196 330.27884l0.9133911 0" fill-rule="evenodd"/><path stroke="#000000" stroke-width="3.0" stroke-linejoin="round" stroke-linecap="butt" d="m694.82196 330.27884l0.9133911 0" fill-rule="evenodd"/><path fill="#000000" fill-opacity="0.0" d="m42.816273 58.087925l69.19685 0l0 48.47244l-69.19685 0z" fill-rule="evenodd"/><path fill="#000000" d="m64.201805 82.03418l1.125 -1.421875q0.203125 -0.265625 0.3125 -0.484375q0.125 -0.234375 0.125 -0.421875q0 -0.046875 -0.0625 -0.09375q-0.0625 -0.0625 -0.765625 -0.1875l0 -1.5l4.84375 0l0 1.453125q-0.71875 0.203125 -1.125 0.53125q-0.390625 0.328125 -1.03125 1.109375l-2.171875 2.6875l2.4375 3.28125q0.546875 0.71875 0.9375 1.09375q0.40625 0.359375 1.09375 0.625l0 1.421875l-5.703125 0l0 -1.53125q0.96875 -0.109375 0.96875 -0.265625q0 -0.171875 -0.046875 -0.3125q-0.046875 -0.140625 -0.234375 -0.359375l-1.3124962 -1.84375l-1.40625 1.8125q-0.171875 0.21875 -0.25 0.359375q-0.0625 0.140625 -0.0625 0.296875q0 0.09375 0.078125 0.171875q0.078125 0.0625 0.828125 0.140625l0 1.53125l-4.921875 0l0 -1.421875q0.65625 -0.25 0.921875 -0.421875q0.265625 -0.1875 0.5625 -0.484375q0.296875 -0.3125 0.8125 -0.9375l2.203125 -2.71875l-2.28125 -3.109375q-0.5 -0.671875 -0.765625 -0.953125q-0.265625 -0.296875 -0.46875 -0.421875q-0.203125 -0.125 -0.75 -0.265625l0 -1.46875l5.59375 0l0 1.515625q-0.9375 0.140625 -0.9375 0.28125q0 0.15625 0.078125 0.359375q0.09375 0.1875 0.34375 0.484375l1.0312462 1.46875zm10.1328125 1.65625q0 4.0 1.2500076 6.515625q1.25 2.515625 4.21875 3.484375l-0.578125 1.84375q-4.09375 -1.078125 -6.0156326 -4.21875q-1.90625 -3.125 -1.90625 -7.5q0 -4.375 1.921875 -7.515625q1.9218826 -3.140625 6.0000076 -4.21875l0.625 1.828125q-3.015625 1.0 -4.265625 3.484375q-1.2500076 2.46875 -1.2500076 6.296875zm5.25782 -5.109375q0.890625 -0.15625 1.15625 -0.328125q0.28125 -0.171875 0.4375 -0.4375q0.15625 -0.28125 0.25 -0.78125q0.109375 -0.515625 0.296875 -2.0l2.609375 0l0 2.890625l3.78125 0l0 2.1875l-3.78125 0l0 4.703125q0 1.109375 0.078125 1.703125q0.09375 0.59375 0.28125 0.875q0.1875 0.28125 0.40625 0.390625q0.21875 0.109375 0.609375 0.109375q0.359375 0 0.671875 -0.15625q0.328125 -0.15625 1.078125 -0.8125l1.15625 1.40625q-1.25 1.171875 -2.078125 1.578125q-0.828125 0.40625 -1.734375 0.40625q-1.75 0 -2.625 -1.0625q-0.859375 -1.0625 -0.859375 -3.140625l0 -6.0l-1.734375 0l0 -1.53125zm13.511719 5.109375q0 -3.828125 -1.25 -6.296875q-1.234375 -2.484375 -4.265625 -3.484375l0.625 -1.828125q4.078125 1.078125 6.0 4.21875q1.921875 3.140625 1.921875 7.515625q0 4.375 -1.921875 7.5q-1.90625 3.140625 -6.0 4.21875l-0.578125 -1.84375q2.96875 -0.96875 4.21875 -3.484375q1.25 -2.515625 1.25 -6.515625z" fill-rule="nonzero"/><path fill="#000000" fill-opacity="0.0" d="m-301.25198 338.13254l187.21262 0l0 48.472443l-187.21262 0z" fill-rule="evenodd"/><path fill="#f8f8f8" d="m-244.32536 347.13254l73.359375 0l0 28.800018l-73.359375 0l0 -28.800018z" fill-rule="nonzero"/><path fill="#000000" fill-opacity="0.0" d="m-244.32536 351.48114l13.2421875 0l0 28.160156l-13.2421875 0l0 -28.160156z" fill-rule="nonzero"/><path fill="#1d1c1d" d="m-239.49724 360.2663l-0.046875 -0.0625q0.625 -1.203125 1.203125 -1.59375q0.59375 -0.40625 1.171875 -0.609375q0.59375 -0.21875 1.296875 -0.21875q0.71875 0 1.296875 0.171875q0.578125 0.171875 1.03125 0.546875q0.46875 0.375 0.75 0.90625q0.296875 0.53125 0.421875 1.21875q0.125 0.6875 0.125 1.703125l0 4.40625q0 0.96875 0.0625 1.234375q0.0625 0.265625 0.1875 0.375q0.125 0.109375 1.078125 0.359375l0 1.46875l-5.625 0l0 -1.453125q0.765625 -0.234375 0.890625 -0.296875q0.140625 -0.0625 0.203125 -0.15625q0.0625 -0.09375 0.125 -0.40625q0.0625 -0.328125 0.0625 -1.078125l0 -3.0625q0 -1.515625 -0.140625 -2.234375q-0.125 -0.71875 -0.46875 -1.0q-0.328125 -0.296875 -0.96875 -0.296875q-0.359375 0 -0.65625 0.125q-0.296875 0.125 -0.734375 0.5q-0.421875 0.375 -0.625 0.71875q-0.1875 0.34375 -0.1875 0.71875l0 4.484375q0 0.765625 0.03125 1.0625q0.03125 0.28125 0.09375 0.40625q0.0625 0.109375 0.21875 0.203125q0.15625 0.09375 0.953125 0.296875l0 1.46875l-5.640625 0l0 -1.453125q0.828125 -0.234375 0.96875 -0.3125q0.140625 -0.078125 0.1875 -0.171875q0.0625 -0.109375 0.109375 -0.421875q0.0625 -0.3125 0.0625 -1.078125l0 -9.796875q0 -1.109375 -0.015625 -1.53125q-0.015625 -0.421875 -0.078125 -0.65625q-0.0625 -0.234375 -0.125 -0.3125q-0.0625 -0.09375 -0.203125 -0.15625q-0.140625 -0.0625 -1.09375 -0.234375l0 -1.515625l3.3125 -0.125l1.21875 0l-0.453125 7.859375z" fill-rule="nonzero"/><path fill="#010000" fill-opacity="0.0" d="m-231.08318 366.7116l8.859375 0l0 18.773438l-8.859375 0l0 -18.773438z" fill-rule="nonzero"/><path fill="#1d1c1d" d="m-224.98943 376.79755q0 0.421875 0.03125 0.59375q0.03125 0.171875 0.109375 0.25q0.078125 0.078125 0.265625 0.140625q0.1875 0.0625 0.515625 0.109375q0.34375 0.03125 1.25 0.0625l0 1.21875l-6.421875 0l0 -1.21875q1.15625 -0.046875 1.484375 -0.109375q0.328125 -0.0625 0.453125 -0.140625q0.125 -0.09375 0.171875 -0.25q0.0625 -0.171875 0.0625 -0.65625l0 -6.328125q0 -0.203125 -0.03125 -0.234375q-0.03125 -0.046875 -0.0625 -0.046875q-0.171875 0 -0.59375 0.234375q-0.40625 0.234375 -1.375 0.875l-0.6875 -1.171875l4.015625 -2.40625l0.875 0q-0.0625 1.09375 -0.0625 2.40625l0 6.671875z" fill-rule="nonzero"/><path fill="#000000" fill-opacity="0.0" d="m-222.2238 351.48114l28.042969 0l0 28.160156l-28.042969 0l0 -28.160156z" fill-rule="nonzero"/><path fill="#1d1c1d" d="m-217.08318 363.73505q0 4.0 1.25 6.515625q1.25 2.515625 4.21875 3.484375l-0.578125 1.84375q-4.09375 -1.078125 -6.015625 -4.21875q-1.90625 -3.125 -1.90625 -7.5q0 -4.375 1.921875 -7.515625q1.921875 -3.140625 6.0 -4.21875l0.625 1.828125q-3.015625 1.0 -4.265625 3.484375q-1.25 2.46875 -1.25 6.296875zm5.2578125 -5.109375q0.890625 -0.15625 1.15625 -0.328125q0.28125 -0.171875 0.4375 -0.4375q0.15625 -0.28125 0.25 -0.78125q0.109375 -0.515625 0.296875 -2.0l2.609375 0l0 2.890625l3.78125 0l0 2.1875l-3.78125 0l0 4.703125q0 1.109375 0.078125 1.703125q0.09375 0.59375 0.28125 0.875q0.1875 0.28125 0.40625 0.390625q0.21875 0.109375 0.609375 0.109375q0.359375 0 0.671875 -0.15625q0.328125 -0.15625 1.078125 -0.8125l1.15625 1.40625q-1.25 1.171875 -2.078125 1.578125q-0.828125 0.40625 -1.734375 0.40625q-1.75 0 -2.625 -1.0625q-0.859375 -1.0625 -0.859375 -3.140625l0 -6.0l-1.734375 0l0 -1.53125zm13.511719 5.109375q0 -3.828125 -1.25 -6.296875q-1.234375 -2.484375 -4.265625 -3.484375l0.625 -1.828125q4.078125 1.078125 6.0 4.21875q1.921875 3.140625 1.921875 7.515625q0 4.375 -1.921875 7.5q-1.90625 3.140625 -6.0 4.21875l-0.578125 -1.84375q2.96875 -0.96875 4.21875 -3.484375q1.25 -2.515625 1.25 -6.515625z" fill-rule="nonzero"/><path fill="#010000" fill-opacity="0.0" d="m-194.18083 351.48114l23.214844 0l0 28.160156l-23.214844 0l0 -28.160156z" fill-rule="nonzero"/><path fill="#1d1c1d" d="m-187.14568 361.65692l0 -2.546875l15.4375 0l0 2.546875l-15.4375 0zm0 4.875l0 -2.5625l15.4375 0l0 2.5625l-15.4375 0zm14.921875 -3.21875l0 0z" fill-rule="nonzero"/><path fill="#000000" fill-opacity="0.0" d="m252.6798 53.83727l234.51967 0l0 48.47244l-234.51967 0z" fill-rule="evenodd"/><path fill="#f8f8f8" d="m280.6076 62.837273l178.66406 0l0 28.799995l-178.66406 0l0 -28.799995z" fill-rule="nonzero"/><path fill="#000000" fill-opacity="0.0" d="m280.6076 67.18587l59.214844 0l0 28.160156l-59.214844 0l0 -28.160156z" fill-rule="nonzero"/><path fill="#1d1c1d" d="m285.43573 75.97102l-0.046875 -0.0625q0.625 -1.203125 1.203125 -1.59375q0.59375 -0.40625 1.171875 -0.609375q0.59375 -0.21875 1.296875 -0.21875q0.71875 0 1.296875 0.171875q0.578125 0.171875 1.03125 0.546875q0.46875 0.375 0.75 0.90625q0.296875 0.53125 0.421875 1.21875q0.125 0.6875 0.125 1.703125l0 4.40625q0 0.96875 0.0625 1.234375q0.0625 0.265625 0.1875 0.375q0.125 0.109375 1.078125 0.359375l0 1.46875l-5.625 0l0 -1.453125q0.765625 -0.234375 0.890625 -0.296875q0.140625 -0.0625 0.203125 -0.15625q0.0625 -0.09375 0.125 -0.40625q0.0625 -0.328125 0.0625 -1.078125l0 -3.0625q0 -1.515625 -0.140625 -2.234375q-0.125 -0.71875 -0.46875 -1.0q-0.328125 -0.296875 -0.96875 -0.296875q-0.359375 0 -0.65625 0.125q-0.296875 0.125 -0.734375 0.5q-0.421875 0.375 -0.625 0.71875q-0.1875 0.34375 -0.1875 0.71875l0 4.484375q0 0.765625 0.03125 1.0625q0.03125 0.28125 0.09375 0.40625q0.0625 0.109375 0.21875 0.203125q0.15625 0.09375 0.953125 0.296875l0 1.46875l-5.640625 0l0 -1.453125q0.828125 -0.234375 0.96875 -0.3125q0.140625 -0.078125 0.1875 -0.171875q0.0625 -0.109375 0.109375 -0.421875q0.0625 -0.3125 0.0625 -1.078125l0 -9.796875q0 -1.109375 -0.015625 -1.53125q-0.015625 -0.421875 -0.078125 -0.65625q-0.0625 -0.234375 -0.125 -0.3125q-0.0625 -0.09375 -0.203125 -0.15625q-0.140625 -0.0625 -1.09375 -0.234375l0 -1.515625l3.3125 -0.125l1.21875 0l-0.453125 7.859375zm13.5546875 3.46875q0 4.0 1.25 6.515625q1.25 2.515625 4.21875 3.484375l-0.578125 1.84375q-4.09375 -1.078125 -6.015625 -4.21875q-1.90625 -3.125 -1.90625 -7.5q0 -4.375 1.921875 -7.515625q1.921875 -3.140625 6.0 -4.21875l0.625 1.828125q-3.015625 1.0 -4.265625 3.484375q-1.25 2.46875 -1.25 6.296875zm5.2578125 -5.109375q0.890625 -0.15625 1.15625 -0.328125q0.28125 -0.171875 0.4375 -0.4375q0.15625 -0.28125 0.25 -0.78125q0.109375 -0.515625 0.296875 -2.0l2.609375 0l0 2.890625l3.78125 0l0 2.1875l-3.78125 0l0 4.703125q0 1.109375 0.078125 1.703125q0.09375 0.59375 0.28125 0.875q0.1875 0.28125 0.40625 0.390625q0.21875 0.109375 0.609375 0.109375q0.359375 0 0.671875 -0.15625q0.328125 -0.15625 1.078125 -0.8125l1.15625 1.40625q-1.25 1.171875 -2.078125 1.578125q-0.828125 0.40625 -1.734375 0.40625q-1.75 0 -2.625 -1.0625q-0.859375 -1.0625 -0.859375 -3.140625l0 -6.0l-1.734375 0l0 -1.53125zm13.511719 5.109375q0 -3.828125 -1.25 -6.296875q-1.234375 -2.484375 -4.265625 -3.484375l0.625 -1.828125q4.078125 1.078125 6.0 4.21875q1.921875 3.140625 1.921875 7.515625q0 4.375 -1.921875 7.5q-1.90625 3.140625 -6.0 4.21875l-0.578125 -1.84375q2.96875 -0.96875 4.21875 -3.484375q1.25 -2.515625 1.25 -6.515625zm5.8828125 -2.078125l0 -2.546875l15.4375 0l0 2.546875l-15.4375 0zm0 4.875l0 -2.5625l15.4375 0l0 2.5625l-15.4375 0zm14.921875 -3.21875l0 0z" fill-rule="nonzero"/><path fill="#010000" fill-opacity="0.0" d="m339.82245 67.18587l13.722656 0l0 28.160156l-13.722656 0l0 -28.160156z" fill-rule="nonzero"/><path fill="#1d1c1d" d="m349.40057 75.8304l0.078125 -0.09375q2.8125 1.28125 2.8125 4.625q0 2.59375 -1.59375 4.15625q-1.578125 1.546875 -4.15625 1.546875q-2.515625 0 -4.03125 -1.59375q-1.515625 -1.609375 -1.515625 -4.15625q0 -2.515625 1.09375 -4.0625q1.09375 -1.546875 2.734375 -2.078125q1.640625 -0.53125 3.96875 -0.53125l5.234375 0l0 2.59375l-4.625 -0.40625zm-1.8125 0.453125q-3.40625 0 -3.40625 4.046875q0 1.90625 0.640625 2.859375q0.65625 0.953125 1.734375 0.953125q2.5625 0 2.5625 -3.71875q0 -2.65625 -1.53125 -4.140625z" fill-rule="nonzero"/><path fill="#000000" fill-opacity="0.0" d="m353.5451 67.18587l17.554688 0l0 28.160156l-17.554688 0l0 -28.160156z" fill-rule="nonzero"/><path fill="#1d1c1d" d="m358.68573 79.43977q0 4.0 1.25 6.515625q1.25 2.515625 4.21875 3.484375l-0.578125 1.84375q-4.09375 -1.078125 -6.015625 -4.21875q-1.90625 -3.125 -1.90625 -7.5q0 -4.375 1.921875 -7.515625q1.921875 -3.140625 6.0 -4.21875l0.625 1.828125q-3.015625 1.0 -4.265625 3.484375q-1.25 2.46875 -1.25 6.296875zm10.5234375 11.484375l-2.8125 0l0 -22.8125l2.8125 0l0 22.8125z" fill-rule="nonzero"/><path fill="#010000" fill-opacity="0.0" d="m371.0998 67.18587l22.113281 0l0 28.160156l-22.113281 0l0 -28.160156z" fill-rule="nonzero"/><path fill="#1d1c1d" d="m382.5998 74.29915l-3.34375 11.65625l-2.671875 0l-3.5 -13.09375q-0.203125 -0.78125 -0.375 -1.25q-0.15625 -0.46875 -0.296875 -0.6875q-0.125 -0.21875 -0.265625 -0.3125q-0.125 -0.09375 -0.78125 -0.28125l0 -1.453125l6.015625 0l0 1.484375q-1.0 0.203125 -1.15625 0.359375q-0.15625 0.15625 -0.15625 0.4375q0 0.359375 0.09375 0.890625q0.109375 0.53125 0.296875 1.234375l1.90625 7.46875l3.359375 -11.875l2.734375 0l2.75 11.875l2.203125 -7.15625q0.484375 -1.5625 0.484375 -2.171875q0 -0.515625 -0.171875 -0.703125q-0.171875 -0.1875 -1.109375 -0.34375l0 -1.5l5.609375 0l0 1.4375q-0.625 0.203125 -0.78125 0.3125q-0.140625 0.09375 -0.296875 0.296875q-0.140625 0.1875 -0.359375 0.6875q-0.203125 0.5 -0.515625 1.359375l-4.375 12.984375l-2.421875 0l-2.875 -11.65625z" fill-rule="nonzero"/><path fill="#000000" fill-opacity="0.0" d="m393.21307 82.416336l8.859375 0l0 18.773438l-8.859375 0l0 -18.773438z" fill-rule="nonzero"/><path fill="#1d1c1d" d="m399.30682 92.50227q0 0.421875 0.03125 0.59375q0.03125 0.171875 0.109375 0.25q0.078125 0.078125 0.265625 0.140625q0.1875 0.0625 0.515625 0.109375q0.34375 0.03125 1.25 0.0625l0 1.21875l-6.421875 0l0 -1.21875q1.15625 -0.046875 1.484375 -0.109375q0.328125 -0.0625 0.453125 -0.140625q0.125 -0.09375 0.171875 -0.25q0.0625 -0.171875 0.0625 -0.65625l0 -6.328125q0 -0.203125 -0.03125 -0.234375q-0.03125 -0.046875 -0.0625 -0.046875q-0.171875 0 -0.59375 0.234375q-0.40625 0.234375 -1.375 0.875l-0.6875 -1.171875l4.015625 -2.40625l0.875 0q-0.0625 1.09375 -0.0625 2.40625l0 6.671875z" fill-rule="nonzero"/><path fill="#010000" fill-opacity="0.0" d="m402.07245 67.18587l39.64453 0l0 28.160156l-39.64453 0l0 -28.160156z" fill-rule="nonzero"/><path fill="#1d1c1d" d="m408.68182 77.78352l1.125 -1.421875q0.203125 -0.265625 0.3125 -0.484375q0.125 -0.234375 0.125 -0.421875q0 -0.046875 -0.0625 -0.09375q-0.0625 -0.0625 -0.765625 -0.1875l0 -1.5l4.84375 0l0 1.453125q-0.71875 0.203125 -1.125 0.53125q-0.390625 0.328125 -1.03125 1.109375l-2.171875 2.6875l2.4375 3.28125q0.546875 0.71875 0.9375 1.09375q0.40625 0.359375 1.09375 0.625l0 1.421875l-5.703125 0l0 -1.53125q0.96875 -0.109375 0.96875 -0.265625q0 -0.171875 -0.046875 -0.3125q-0.046875 -0.140625 -0.234375 -0.359375l-1.3125 -1.84375l-1.40625 1.8125q-0.171875 0.21875 -0.25 0.359375q-0.0625 0.140625 -0.0625 0.296875q0 0.09375 0.078125 0.171875q0.078125 0.0625 0.828125 0.140625l0 1.53125l-4.921875 0l0 -1.421875q0.65625 -0.25 0.921875 -0.421875q0.265625 -0.1875 0.5625 -0.484375q0.296875 -0.3125 0.8125 -0.9375l2.203125 -2.71875l-2.28125 -3.109375q-0.5 -0.671875 -0.765625 -0.953125q-0.265625 -0.296875 -0.46875 -0.421875q-0.203125 -0.125 -0.75 -0.265625l0 -1.46875l5.59375 0l0 1.515625q-0.9375 0.140625 -0.9375 0.28125q0 0.15625 0.078125 0.359375q0.09375 0.1875 0.34375 0.484375l1.03125 1.46875zm10.1328125 1.65625q0 4.0 1.25 6.515625q1.25 2.515625 4.21875 3.484375l-0.578125 1.84375q-4.09375 -1.078125 -6.015625 -4.21875q-1.90625 -3.125 -1.90625 -7.5q0 -4.375 1.921875 -7.515625q1.921875 -3.140625 6.0 -4.21875l0.625 1.828125q-3.015625 1.0 -4.265625 3.484375q-1.25 2.46875 -1.25 6.296875zm5.2578125 -5.109375q0.890625 -0.15625 1.15625 -0.328125q0.28125 -0.171875 0.4375 -0.4375q0.15625 -0.28125 0.25 -0.78125q0.109375 -0.515625 0.296875 -2.0l2.609375 0l0 2.890625l3.78125 0l0 2.1875l-3.78125 0l0 4.703125q0 1.109375 0.078125 1.703125q0.09375 0.59375 0.28125 0.875q0.1875 0.28125 0.40625 0.390625q0.21875 0.109375 0.609375 0.109375q0.359375 0 0.671875 -0.15625q0.328125 -0.15625 1.078125 -0.8125l1.15625 1.40625q-1.25 1.171875 -2.078125 1.578125q-0.828125 0.40625 -1.734375 0.40625q-1.75 0 -2.625 -1.0625q-0.859375 -1.0625 -0.859375 -3.140625l0 -6.0l-1.734375 0l0 -1.53125zm13.511719 5.109375q0 -3.828125 -1.25 -6.296875q-1.234375 -2.484375 -4.265625 -3.484375l0.625 -1.828125q4.078125 1.078125 6.0 4.21875q1.921875 3.140625 1.921875 7.515625q0 4.375 -1.921875 7.5q-1.90625 3.140625 -6.0 4.21875l-0.578125 -1.84375q2.96875 -0.96875 4.21875 -3.484375q1.25 -2.515625 1.25 -6.515625z" fill-rule="nonzero"/><path fill="#000000" fill-opacity="0.0" d="m441.71698 67.18587l17.554688 0l0 28.160156l-17.554688 0l0 -28.160156z" fill-rule="nonzero"/><path fill="#1d1c1d" d="m447.4201 90.92415l-2.8125 0l0 -22.8125l2.8125 0l0 22.8125zm7.71875 -11.484375q0 -3.828125 -1.25 -6.296875q-1.234375 -2.484375 -4.265625 -3.484375l0.625 -1.828125q4.078125 1.078125 6.0 4.21875q1.921875 3.140625 1.921875 7.515625q0 4.375 -1.921875 7.5q-1.90625 3.140625 -6.0 4.21875l-0.578125 -1.84375q2.96875 -0.96875 4.21875 -3.484375q1.25 -2.515625 1.25 -6.515625z" fill-rule="nonzero"/><path fill="#000000" fill-opacity="0.0" d="m583.7034 59.855644l209.16534 0l0 48.472443l-209.16534 0z" fill-rule="evenodd"/><path fill="#f8f8f8" d="m601.01654 68.855644l174.53906 0l0 28.800003l-174.53906 0l0 -28.800003z" fill-rule="nonzero"/><path fill="#000000" fill-opacity="0.0" d="m601.01654 73.20424l12.09375 0l0 28.160156l-12.09375 0l0 -28.160156z" fill-rule="nonzero"/><path fill="#1d1c1d" d="m608.0634 92.56752q-0.65625 1.5 -1.3125 2.453125q-0.640625 0.96875 -1.484375 1.484375q-0.84375 0.53125 -1.984375 0.53125q-0.703125 0 -1.953125 -0.25l0 -3.234375l1.90625 0q0.203125 0.703125 0.28125 0.78125q0.09375 0.078125 0.3125 0.078125q0.234375 0 0.421875 -0.09375q0.1875 -0.078125 0.421875 -0.359375q0.25 -0.265625 0.640625 -0.921875q0.390625 -0.640625 0.78125 -1.484375l-3.203125 -8.625q-0.296875 -0.8125 -0.46875 -1.09375q-0.15625 -0.28125 -0.296875 -0.390625q-0.140625 -0.109375 -0.875 -0.265625l0 -1.484375l5.765625 0l0 1.484375q-0.859375 0.1875 -1.0 0.265625q-0.125 0.078125 -0.171875 0.15625q-0.03125 0.0625 -0.03125 0.234375q0 0.25 0.0625 0.5625q0.078125 0.296875 0.21875 0.71875l1.65625 4.65625l1.859375 -4.4375q0.1875 -0.4375 0.28125 -0.78125q0.09375 -0.34375 0.09375 -0.609375q0 -0.296875 -0.140625 -0.421875q-0.140625 -0.140625 -1.09375 -0.34375l0 -1.484375l5.390625 0l0 1.484375q-0.75 0.15625 -0.921875 0.28125q-0.15625 0.125 -0.375 0.5q-0.203125 0.359375 -0.53125 1.078125l-4.25 9.53125z" fill-rule="nonzero"/><path fill="#010000" fill-opacity="0.0" d="m613.1103 73.20424l102.33984 0l0 28.160156l-102.33984 0l0 -28.160156z" fill-rule="nonzero"/><path fill="#1d1c1d" d="m618.2509 85.458145q0 4.0 1.25 6.515625q1.25 2.515625 4.21875 3.484375l-0.578125 1.84375q-4.09375 -1.078125 -6.015625 -4.21875q-1.90625 -3.125 -1.90625 -7.5q0 -4.375 1.921875 -7.515625q1.921875 -3.140625 6.0 -4.21875l0.625 1.828125q-3.015625 1.0 -4.265625 3.484375q-1.25 2.46875 -1.25 6.296875zm5.2578125 -5.109375q0.890625 -0.15625 1.15625 -0.328125q0.28125 -0.171875 0.4375 -0.4375q0.15625 -0.28125 0.25 -0.78125q0.109375 -0.515625 0.296875 -2.0l2.609375 0l0 2.890625l3.78125 0l0 2.1875l-3.78125 0l0 4.703125q0 1.109375 0.078125 1.703125q0.09375 0.59375 0.28125 0.875q0.1875 0.28125 0.40625 0.390625q0.21875 0.109375 0.609375 0.109375q0.359375 0 0.671875 -0.15625q0.328125 -0.15625 1.078125 -0.8125l1.15625 1.40625q-1.25 1.171875 -2.078125 1.578125q-0.828125 0.40625 -1.734375 0.40625q-1.75 0 -2.625 -1.0625q-0.859375 -1.0625 -0.859375 -3.140625l0 -6.0l-1.734375 0l0 -1.53125zm13.511719 5.109375q0 -3.828125 -1.25 -6.296875q-1.234375 -2.484375 -4.265625 -3.484375l0.625 -1.828125q4.078125 1.078125 6.0 4.21875q1.921875 3.140625 1.921875 7.515625q0 4.375 -1.921875 7.5q-1.90625 3.140625 -6.0 4.21875l-0.578125 -1.84375q2.96875 -0.96875 4.21875 -3.484375q1.25 -2.515625 1.25 -6.515625zm11.167969 -2.078125l0 -2.546875l15.4375 0l0 2.546875l-15.4375 0zm0 4.875l0 -2.5625l15.4375 0l0 2.5625l-15.4375 0zm14.921875 -3.21875l0 0zm16.121094 -3.1875l0.078125 -0.09375q2.8125 1.28125 2.8125 4.625q0 2.59375 -1.59375 4.15625q-1.578125 1.546875 -4.15625 1.546875q-2.515625 0 -4.03125 -1.59375q-1.515625 -1.609375 -1.515625 -4.15625q0 -2.515625 1.09375 -4.0625q1.09375 -1.546875 2.734375 -2.078125q1.640625 -0.53125 3.96875 -0.53125l5.234375 0l0 2.59375l-4.625 -0.40625zm-1.8125 0.453125q-3.40625 0 -3.40625 4.046875q0 1.90625 0.640625 2.859375q0.65625 0.953125 1.734375 0.953125q2.5625 0 2.5625 -3.71875q0 -2.65625 -1.53125 -4.140625zm11.097656 3.15625q0 4.0 1.25 6.515625q1.25 2.515625 4.21875 3.484375l-0.578125 1.84375q-4.09375 -1.078125 -6.015625 -4.21875q-1.90625 -3.125 -1.90625 -7.5q0 -4.375 1.921875 -7.515625q1.921875 -3.140625 6.0 -4.21875l0.625 1.828125q-3.015625 1.0 -4.265625 3.484375q-1.25 2.46875 -1.25 6.296875zm16.320312 -5.140625l-3.34375 11.65625l-2.671875 0l-3.5 -13.09375q-0.203125 -0.78125 -0.375 -1.25q-0.15625 -0.46875 -0.296875 -0.6875q-0.125 -0.21875 -0.265625 -0.3125q-0.125 -0.09375 -0.78125 -0.28125l0 -1.453125l6.015625 0l0 1.484375q-1.0 0.203125 -1.15625 0.359375q-0.15625 0.15625 -0.15625 0.4375q0 0.359375 0.09375 0.890625q0.109375 0.53125 0.296875 1.234375l1.90625 7.46875l3.359375 -11.875l2.734375 0l2.75 11.875l2.203125 -7.15625q0.484375 -1.5625 0.484375 -2.171875q0 -0.515625 -0.171875 -0.703125q-0.171875 -0.1875 -1.109375 -0.34375l0 -1.5l5.609375 0l0 1.4375q-0.625 0.203125 -0.78125 0.3125q-0.140625 0.09375 -0.296875 0.296875q-0.140625 0.1875 -0.359375 0.6875q-0.203125 0.5 -0.515625 1.359375l-4.375 12.984375l-2.421875 0l-2.875 -11.65625z" fill-rule="nonzero"/><path fill="#000000" fill-opacity="0.0" d="m715.45013 88.43471l8.859375 0l0 18.773438l-8.859375 0l0 -18.773438z" fill-rule="nonzero"/><path fill="#1d1c1d" d="m721.26263 98.989395q0.359375 0 0.53125 -0.03125q0.1875 -0.046875 0.265625 -0.09375q0.078125 -0.0625 0.125 -0.203125q0.0625 -0.140625 0.265625 -0.703125l1.25 0l-0.171875 2.9375l-7.0625 0l0 -0.765625q0.359375 -0.921875 0.9375 -1.796875q0.59375 -0.890625 1.65625 -2.0625q0.90625 -1.0 1.296875 -1.5q0.421875 -0.53125 0.609375 -0.921875q0.203125 -0.390625 0.28125 -0.703125q0.09375 -0.328125 0.09375 -0.65625q0 -0.515625 -0.15625 -0.890625q-0.15625 -0.375 -0.453125 -0.578125q-0.296875 -0.203125 -0.796875 -0.203125q-1.21875 0 -1.734375 1.625l-1.5 0l0 -2.03125q1.15625 -0.546875 2.015625 -0.75q0.859375 -0.21875 1.5625 -0.21875q1.578125 0 2.421875 0.734375q0.84375 0.71875 0.84375 2.078125q0 0.46875 -0.09375 0.84375q-0.09375 0.375 -0.28125 0.75q-0.1875 0.375 -0.5 0.78125q-0.3125 0.40625 -0.6875 0.8125q-0.359375 0.40625 -1.25 1.34375q-1.453125 1.5625 -1.828125 2.203125l2.359375 0z" fill-rule="nonzero"/><path fill="#010000" fill-opacity="0.0" d="m724.3095 73.20424l13.2421875 0l0 28.160156l-13.2421875 0l0 -28.160156z" fill-rule="nonzero"/><path fill="#1d1c1d" d="m729.13763 81.989395l-0.046875 -0.0625q0.625 -1.203125 1.203125 -1.59375q0.59375 -0.40625 1.171875 -0.609375q0.59375 -0.21875 1.296875 -0.21875q0.71875 0 1.296875 0.171875q0.578125 0.171875 1.03125 0.546875q0.46875 0.375 0.75 0.90625q0.296875 0.53125 0.421875 1.21875q0.125 0.6875 0.125 1.703125l0 4.40625q0 0.96875 0.0625 1.234375q0.0625 0.265625 0.1875 0.375q0.125 0.109375 1.078125 0.359375l0 1.46875l-5.625 0l0 -1.453125q0.765625 -0.234375 0.890625 -0.296875q0.140625 -0.0625 0.203125 -0.15625q0.0625 -0.09375 0.125 -0.40625q0.0625 -0.328125 0.0625 -1.078125l0 -3.0625q0 -1.515625 -0.140625 -2.234375q-0.125 -0.71875 -0.46875 -1.0q-0.328125 -0.296875 -0.96875 -0.296875q-0.359375 0 -0.65625 0.125q-0.296875 0.125 -0.734375 0.5q-0.421875 0.375 -0.625 0.71875q-0.1875 0.34375 -0.1875 0.71875l0 4.484375q0 0.765625 0.03125 1.0625q0.03125 0.28125 0.09375 0.40625q0.0625 0.109375 0.21875 0.203125q0.15625 0.09375 0.953125 0.296875l0 1.46875l-5.640625 0l0 -1.453125q0.828125 -0.234375 0.96875 -0.3125q0.140625 -0.078125 0.1875 -0.171875q0.0625 -0.109375 0.109375 -0.421875q0.0625 -0.3125 0.0625 -1.078125l0 -9.796875q0 -1.109375 -0.015625 -1.53125q-0.015625 -0.421875 -0.078125 -0.65625q-0.0625 -0.234375 -0.125 -0.3125q-0.0625 -0.09375 -0.203125 -0.15625q-0.140625 -0.0625 -1.09375 -0.234375l0 -1.515625l3.3125 -0.125l1.21875 0l-0.453125 7.859375z" fill-rule="nonzero"/><path fill="#000000" fill-opacity="0.0" d="m737.5517 73.20424l38.003906 0l0 28.160156l-38.003906 0l0 -28.160156z" fill-rule="nonzero"/><path fill="#1d1c1d" d="m742.6923 85.458145q0 4.0 1.25 6.515625q1.25 2.515625 4.21875 3.484375l-0.578125 1.84375q-4.09375 -1.078125 -6.015625 -4.21875q-1.90625 -3.125 -1.90625 -7.5q0 -4.375 1.921875 -7.515625q1.921875 -3.140625 6.0 -4.21875l0.625 1.828125q-3.015625 1.0 -4.265625 3.484375q-1.25 2.46875 -1.25 6.296875zm5.2578125 -5.109375q0.890625 -0.15625 1.15625 -0.328125q0.28125 -0.171875 0.4375 -0.4375q0.15625 -0.28125 0.25 -0.78125q0.109375 -0.515625 0.296875 -2.0l2.609375 0l0 2.890625l3.78125 0l0 2.1875l-3.78125 0l0 4.703125q0 1.109375 0.078125 1.703125q0.09375 0.59375 0.28125 0.875q0.1875 0.28125 0.40625 0.390625q0.21875 0.109375 0.609375 0.109375q0.359375 0 0.671875 -0.15625q0.328125 -0.15625 1.078125 -0.8125l1.15625 1.40625q-1.25 1.171875 -2.078125 1.578125q-0.828125 0.40625 -1.734375 0.40625q-1.75 0 -2.625 -1.0625q-0.859375 -1.0625 -0.859375 -3.140625l0 -6.0l-1.734375 0l0 -1.53125zm13.511719 5.109375q0 -3.828125 -1.25 -6.296875q-1.234375 -2.484375 -4.265625 -3.484375l0.625 -1.828125q4.078125 1.078125 6.0 4.21875q1.921875 3.140625 1.921875 7.515625q0 4.375 -1.921875 7.5q-1.90625 3.140625 -6.0 4.21875l-0.578125 -1.84375q2.96875 -0.96875 4.21875 -3.484375q1.25 -2.515625 1.25 -6.515625zm9.9609375 0q0 -3.828125 -1.25 -6.296875q-1.234375 -2.484375 -4.265625 -3.484375l0.625 -1.828125q4.078125 1.078125 6.0 4.21875q1.921875 3.140625 1.921875 7.515625q0 4.375 -1.921875 7.5q-1.90625 3.140625 -6.0 4.21875l-0.578125 -1.84375q2.96875 -0.96875 4.21875 -3.484375q1.25 -2.515625 1.25 -6.515625z" fill-rule="nonzero"/><path fill="#000000" fill-opacity="0.0" d="m504.06036 146.35432l156.25195 0l0 42.015747l-156.25195 0z" fill-rule="evenodd"/><path fill="#000000" d="m546.05585 168.93057l2.625 -0.25q0.234375 1.3125 0.953125 1.9375q0.734375 0.609375 1.96875 0.609375q1.296875 0 1.953125 -0.546875q0.671875 -0.546875 0.671875 -1.28125q0 -0.484375 -0.28125 -0.8125q-0.28125 -0.328125 -0.96875 -0.578125q-0.484375 -0.15625 -2.171875 -0.578125q-2.15625 -0.546875 -3.03125 -1.328125q-1.234375 -1.09375 -1.234375 -2.6875q0 -1.015625 0.578125 -1.90625q0.578125 -0.890625 1.65625 -1.34375q1.09375 -0.46875 2.640625 -0.46875q2.515625 0 3.78125 1.109375q1.28125 1.09375 1.34375 2.9375l-2.703125 0.109375q-0.171875 -1.03125 -0.75 -1.46875q-0.5625 -0.453125 -1.703125 -0.453125q-1.171875 0 -1.84375 0.46875q-0.421875 0.3125 -0.421875 0.84375q0 0.46875 0.40625 0.796875q0.5 0.4375 2.46875 0.90625q1.96875 0.453125 2.90625 0.953125q0.953125 0.5 1.484375 1.359375q0.53125 0.859375 0.53125 2.125q0 1.15625 -0.640625 2.15625q-0.640625 1.0 -1.8125 1.484375q-1.15625 0.484375 -2.890625 0.484375q-2.53125 0 -3.890625 -1.171875q-1.359375 -1.171875 -1.625 -3.40625zm12.5217285 -0.625q0 -1.28125 0.625 -2.46875q0.625 -1.203125 1.78125 -1.828125q1.15625 -0.625 2.578125 -0.625q2.1875 0 3.59375 1.421875q1.40625 1.421875 1.40625 3.609375q0 2.1875 -1.421875 3.640625q-1.421875 1.4375 -3.5625 1.4375q-1.328125 0 -2.546875 -0.59375q-1.203125 -0.609375 -1.828125 -1.765625q-0.625 -1.171875 -0.625 -2.828125zm2.625 0.125q0 1.453125 0.671875 2.21875q0.6875 0.75 1.6875 0.75q1.0 0 1.671875 -0.75q0.6875 -0.765625 0.6875 -2.234375q0 -1.421875 -0.6875 -2.1875q-0.671875 -0.765625 -1.671875 -0.765625q-1.0 0 -1.6875 0.765625q-0.671875 0.765625 -0.671875 2.203125zm8.239685 -4.828125l1.421875 0l0 -0.734375q0 -1.21875 0.25 -1.8125q0.265625 -0.609375 0.953125 -0.984375q0.703125 -0.375 1.78125 -0.375q1.09375 0 2.140625 0.328125l-0.359375 1.78125q-0.609375 -0.140625 -1.171875 -0.140625q-0.546875 0 -0.796875 0.265625q-0.234375 0.25 -0.234375 0.984375l0 0.6875l1.90625 0l0 2.015625l-1.90625 0l0 7.65625l-2.5625 0l0 -7.65625l-1.421875 0l0 -2.015625zm11.7752075 0l0 2.03125l-1.75 0l0 3.90625q0 1.1875 0.046875 1.390625q0.046875 0.1875 0.21875 0.3125q0.1875 0.125 0.4375 0.125q0.359375 0 1.03125 -0.25l0.21875 2.0q-0.890625 0.375 -2.015625 0.375q-0.703125 0 -1.265625 -0.234375q-0.546875 -0.234375 -0.8125 -0.59375q-0.25 -0.375 -0.34375 -1.0q-0.09375 -0.453125 -0.09375 -1.8125l0 -4.21875l-1.171875 0l0 -2.03125l1.171875 0l0 -1.921875l2.578125 -1.5l0 3.421875l1.75 0zm1.5720215 0l2.359375 0l0 1.3125q1.265625 -1.53125 3.015625 -1.53125q0.9375 0 1.609375 0.390625q0.6875 0.375 1.125 1.140625q0.640625 -0.765625 1.375 -1.140625q0.75 -0.390625 1.578125 -0.390625q1.0625 0 1.796875 0.4375q0.75 0.421875 1.109375 1.265625q0.265625 0.625 0.265625 2.0l0 6.1875l-2.5625 0l0 -5.53125q0 -1.4375 -0.265625 -1.859375q-0.34375 -0.546875 -1.09375 -0.546875q-0.53125 0 -1.015625 0.328125q-0.46875 0.328125 -0.671875 0.96875q-0.203125 0.625 -0.203125 2.0l0 4.640625l-2.5625 0l0 -5.296875q0 -1.421875 -0.140625 -1.828125q-0.140625 -0.40625 -0.421875 -0.609375q-0.28125 -0.203125 -0.78125 -0.203125q-0.59375 0 -1.0625 0.328125q-0.46875 0.3125 -0.6875 0.921875q-0.203125 0.59375 -0.203125 1.984375l0 4.703125l-2.5625 0l0 -9.671875zm18.697815 2.953125l-2.328125 -0.421875q0.40625 -1.40625 1.359375 -2.078125q0.953125 -0.671875 2.84375 -0.671875q1.703125 0 2.546875 0.40625q0.84375 0.40625 1.171875 1.03125q0.34375 0.625 0.34375 2.28125l-0.015625 3.0q0 1.265625 0.109375 1.875q0.125 0.609375 0.46875 1.296875l-2.53125 0q-0.109375 -0.25 -0.25 -0.75q-0.0625 -0.234375 -0.09375 -0.3125q-0.65625 0.640625 -1.40625 0.96875q-0.734375 0.3125 -1.59375 0.3125q-1.484375 0 -2.34375 -0.8125q-0.859375 -0.8125 -0.859375 -2.046875q0 -0.828125 0.390625 -1.46875q0.390625 -0.640625 1.09375 -0.96875q0.703125 -0.34375 2.03125 -0.609375q1.796875 -0.328125 2.484375 -0.625l0 -0.25q0 -0.75 -0.359375 -1.0625q-0.359375 -0.3125 -1.375 -0.3125q-0.6875 0 -1.078125 0.28125q-0.375 0.265625 -0.609375 0.9375zm3.421875 2.078125q-0.484375 0.15625 -1.5625 0.390625q-1.0625 0.21875 -1.390625 0.4375q-0.5 0.359375 -0.5 0.90625q0 0.53125 0.40625 0.9375q0.40625 0.390625 1.015625 0.390625q0.703125 0 1.328125 -0.46875q0.46875 -0.34375 0.609375 -0.84375q0.09375 -0.328125 0.09375 -1.25l0 -0.5zm3.8131714 4.640625l3.484375 -4.984375l-3.34375 -4.6875l3.125 0l1.71875 2.65625l1.796875 -2.65625l3.015625 0l-3.28125 4.578125l3.578125 5.09375l-3.140625 0l-1.96875 -3.0l-1.984375 3.0l-3.0 0z" fill-rule="nonzero"/><path fill="#000000" fill-opacity="0.0" d="m-0.5249344 8.0l156.18898 0l0 48.472443l-156.18898 0z" fill-rule="evenodd"/><path fill="#000000" d="m53.11448 40.04l0 -17.1875l2.28125 0l0 17.1875l-2.28125 0zm6.0117188 0l0 -12.453125l1.90625 0l0 1.78125q1.375 -2.0625 3.953125 -2.0625q1.125 0 2.0625 0.40625q0.953125 0.40625 1.421875 1.0625q0.46875 0.65625 0.65625 1.5625q0.125 0.578125 0.125 2.046875l0 7.65625l-2.109375 0l0 -7.578125q0 -1.28125 -0.25 -1.921875q-0.25 -0.640625 -0.875 -1.015625q-0.625 -0.390625 -1.46875 -0.390625q-1.34375 0 -2.328125 0.859375q-0.984375 0.859375 -0.984375 3.25l0 6.796875l-2.109375 0zm13.347656 4.765625l0 -17.21875l1.921875 0l0 1.625q0.6875 -0.953125 1.53125 -1.421875q0.859375 -0.484375 2.078125 -0.484375q1.59375 0 2.8125 0.828125q1.21875 0.8125 1.84375 2.3125q0.625 1.5 0.625 3.28125q0 1.90625 -0.6875 3.4375q-0.6875 1.53125 -2.0 2.34375q-1.296875 0.8125 -2.734375 0.8125q-1.0625 0 -1.90625 -0.4375q-0.828125 -0.453125 -1.375 -1.140625l0 6.0625l-2.109375 0zm1.921875 -10.921875q0 2.40625 0.96875 3.5625q0.96875 1.140625 2.359375 1.140625q1.40625 0 2.40625 -1.1875q1.0 -1.1875 1.0 -3.6875q0 -2.375 -0.984375 -3.5625q-0.96875 -1.1875 -2.328125 -1.1875q-1.359375 0 -2.390625 1.265625q-1.03125 1.25 -1.03125 3.65625zm19.582031 6.15625l0 -1.828125q-1.453125 2.109375 -3.9375 2.109375q-1.109375 0 -2.0625 -0.421875q-0.953125 -0.421875 -1.421875 -1.0625q-0.453125 -0.640625 -0.640625 -1.5625q-0.140625 -0.625 -0.140625 -1.96875l0 -7.71875l2.109375 0l0 6.90625q0 1.65625 0.140625 2.234375q0.1875 0.828125 0.828125 1.3125q0.65625 0.46875 1.609375 0.46875q0.9375 0 1.765625 -0.484375q0.84375 -0.5 1.1875 -1.328125q0.34375 -0.84375 0.34375 -2.4375l0 -6.671875l2.109375 0l0 12.453125l-1.890625 0zm9.800781 -1.890625l0.3125 1.859375q-0.890625 0.203125 -1.59375 0.203125q-1.15625 0 -1.796875 -0.359375q-0.625 -0.375 -0.890625 -0.96875q-0.25 -0.59375 -0.25 -2.484375l0 -7.171875l-1.546875 0l0 -1.640625l1.546875 0l0 -3.078125l2.09375 -1.265625l0 4.34375l2.125 0l0 1.640625l-2.125 0l0 7.28125q0 0.90625 0.109375 1.171875q0.125 0.25 0.375 0.40625q0.25 0.140625 0.71875 0.140625q0.34375 0 0.921875 -0.078125z" fill-rule="nonzero"/><path fill="#000000" fill-opacity="0.0" d="m598.0341 8.0l180.50397 0l0 48.472443l-180.50397 0z" fill-rule="evenodd"/><path fill="#000000" d="m653.4189 31.665q0 -4.265625 2.296875 -6.6875q2.296875 -2.421875 5.9375 -2.421875q2.375 0 4.28125 1.140625q1.921875 1.125 2.921875 3.171875q1.0 2.03125 1.0 4.609375q0 2.609375 -1.0625 4.671875q-1.046875 2.0625 -2.984375 3.125q-1.9375 1.0625 -4.171875 1.0625q-2.421875 0 -4.34375 -1.171875q-1.90625 -1.171875 -2.890625 -3.203125q-0.984375 -2.03125 -0.984375 -4.296875zm2.34375 0.046875q0 3.09375 1.671875 4.890625q1.671875 1.78125 4.1875 1.78125q2.578125 0 4.234375 -1.796875q1.65625 -1.8125 1.65625 -5.125q0 -2.09375 -0.71875 -3.65625q-0.703125 -1.578125 -2.078125 -2.4375q-1.359375 -0.859375 -3.046875 -0.859375q-2.421875 0 -4.171875 1.65625q-1.734375 1.65625 -1.734375 5.546875zm24.902344 8.328125l0 -1.828125q-1.453125 2.109375 -3.9375 2.109375q-1.109375 0 -2.0625 -0.421875q-0.953125 -0.421875 -1.421875 -1.0625q-0.453125 -0.640625 -0.640625 -1.5625q-0.140625 -0.625 -0.140625 -1.96875l0 -7.71875l2.109375 0l0 6.90625q0 1.65625 0.140625 2.234375q0.1875 0.828125 0.828125 1.3125q0.65625 0.46875 1.609375 0.46875q0.9375 0 1.765625 -0.484375q0.84375 -0.5 1.1875 -1.328125q0.34375 -0.84375 0.34375 -2.4375l0 -6.671875l2.109375 0l0 12.453125l-1.890625 0zm9.800781 -1.890625l0.3125 1.859375q-0.890625 0.203125 -1.59375 0.203125q-1.15625 0 -1.796875 -0.359375q-0.625 -0.375 -0.890625 -0.96875q-0.25 -0.59375 -0.25 -2.484375l0 -7.171875l-1.546875 0l0 -1.640625l1.546875 0l0 -3.078125l2.09375 -1.265625l0 4.34375l2.125 0l0 1.640625l-2.125 0l0 7.28125q0 0.90625 0.109375 1.171875q0.125 0.25 0.375 0.40625q0.25 0.140625 0.71875 0.140625q0.34375 0 0.921875 -0.078125zm2.0585938 6.65625l0 -17.21875l1.921875 0l0 1.625q0.6875 -0.953125 1.53125 -1.421875q0.859375 -0.484375 2.078125 -0.484375q1.59375 0 2.8125 0.828125q1.21875 0.8125 1.84375 2.3125q0.625 1.5 0.625 3.28125q0 1.90625 -0.6875 3.4375q-0.6875 1.53125 -2.0 2.34375q-1.296875 0.8125 -2.734375 0.8125q-1.0625 0 -1.90625 -0.4375q-0.828125 -0.453125 -1.375 -1.140625l0 6.0625l-2.109375 0zm1.921875 -10.921875q0 2.40625 0.96875 3.5625q0.96875 1.140625 2.359375 1.140625q1.40625 0 2.40625 -1.1875q1.0 -1.1875 1.0 -3.6875q0 -2.375 -0.984375 -3.5625q-0.96875 -1.1875 -2.328125 -1.1875q-1.359375 0 -2.390625 1.265625q-1.03125 1.25 -1.03125 3.65625zm19.582031 6.15625l0 -1.828125q-1.453125 2.109375 -3.9375 2.109375q-1.109375 0 -2.0625 -0.421875q-0.953125 -0.421875 -1.421875 -1.0625q-0.453125 -0.640625 -0.640625 -1.5625q-0.140625 -0.625 -0.140625 -1.96875l0 -7.71875l2.109375 0l0 6.90625q0 1.65625 0.140625 2.234375q0.1875 0.828125 0.828125 1.3125q0.65625 0.46875 1.609375 0.46875q0.9375 0 1.765625 -0.484375q0.84375 -0.5 1.1875 -1.328125q0.34375 -0.84375 0.34375 -2.4375l0 -6.671875l2.109375 0l0 12.453125l-1.890625 0zm9.800781 -1.890625l0.3125 1.859375q-0.890625 0.203125 -1.59375 0.203125q-1.15625 0 -1.796875 -0.359375q-0.625 -0.375 -0.890625 -0.96875q-0.25 -0.59375 -0.25 -2.484375l0 -7.171875l-1.546875 0l0 -1.640625l1.546875 0l0 -3.078125l2.09375 -1.265625l0 4.34375l2.125 0l0 1.640625l-2.125 0l0 7.28125q0 0.90625 0.109375 1.171875q0.125 0.25 0.375 0.40625q0.25 0.140625 0.71875 0.140625q0.34375 0 0.921875 -0.078125z" fill-rule="nonzero"/><path fill="#000000" fill-opacity="0.0" d="m265.3569 8.0l209.16534 0l0 48.472443l-209.16534 0z" fill-rule="evenodd"/><path fill="#000000" d="m304.49036 40.04l0 -17.1875l2.28125 0l0 7.0625l8.921875 0l0 -7.0625l2.28125 0l0 17.1875l-2.28125 0l0 -8.09375l-8.921875 0l0 8.09375l-2.28125 0zm17.003906 -14.75l0 -2.4375l2.109375 0l0 2.4375l-2.109375 0zm0 14.75l0 -12.453125l2.109375 0l0 12.453125l-2.109375 0zm13.394531 0l0 -1.578125q-1.1875 1.859375 -3.484375 1.859375q-1.484375 0 -2.734375 -0.8125q-1.25 -0.828125 -1.9375 -2.296875q-0.671875 -1.46875 -0.671875 -3.390625q0 -1.859375 0.609375 -3.375q0.625 -1.515625 1.859375 -2.328125q1.25 -0.8125 2.78125 -0.8125q1.125 0 2.0 0.484375q0.890625 0.46875 1.4375 1.234375l0 -6.171875l2.09375 0l0 17.1875l-1.953125 0zm-6.671875 -6.21875q0 2.390625 1.0 3.578125q1.015625 1.1875 2.390625 1.1875q1.390625 0 2.34375 -1.125q0.96875 -1.140625 0.96875 -3.453125q0 -2.5625 -0.984375 -3.75q-0.984375 -1.203125 -2.421875 -1.203125q-1.40625 0 -2.359375 1.15625q-0.9375 1.140625 -0.9375 3.609375zm20.019531 6.21875l0 -1.578125q-1.1875 1.859375 -3.484375 1.859375q-1.484375 0 -2.734375 -0.8125q-1.25 -0.828125 -1.9375 -2.296875q-0.671875 -1.46875 -0.671875 -3.390625q0 -1.859375 0.609375 -3.375q0.625 -1.515625 1.859375 -2.328125q1.25 -0.8125 2.78125 -0.8125q1.125 0 2.0 0.484375q0.890625 0.46875 1.4375 1.234375l0 -6.171875l2.09375 0l0 17.1875l-1.953125 0zm-6.671875 -6.21875q0 2.390625 1.0 3.578125q1.015625 1.1875 2.390625 1.1875q1.390625 0 2.34375 -1.125q0.96875 -1.140625 0.96875 -3.453125q0 -2.5625 -0.984375 -3.75q-0.984375 -1.203125 -2.421875 -1.203125q-1.40625 0 -2.359375 1.15625q-0.9375 1.140625 -0.9375 3.609375zm20.472656 2.203125l2.171875 0.28125q-0.515625 1.90625 -1.90625 2.96875q-1.390625 1.046875 -3.5625 1.046875q-2.734375 0 -4.34375 -1.671875q-1.59375 -1.6875 -1.59375 -4.734375q0 -3.140625 1.609375 -4.875q1.625 -1.734375 4.203125 -1.734375q2.5 0 4.078125 1.703125q1.59375 1.703125 1.59375 4.78125q0 0.1875 -0.015625 0.5625l-9.28125 0q0.109375 2.046875 1.15625 3.140625q1.046875 1.09375 2.609375 1.09375q1.15625 0 1.96875 -0.609375q0.828125 -0.609375 1.3125 -1.953125zm-6.9375 -3.40625l6.953125 0q-0.140625 -1.5625 -0.796875 -2.359375q-1.0 -1.21875 -2.609375 -1.21875q-1.453125 0 -2.453125 0.984375q-0.984375 0.96875 -1.09375 2.59375zm11.753906 7.421875l0 -12.453125l1.90625 0l0 1.78125q1.375 -2.0625 3.953125 -2.0625q1.125 0 2.0625 0.40625q0.953125 0.40625 1.421875 1.0625q0.46875 0.65625 0.65625 1.5625q0.125 0.578125 0.125 2.046875l0 7.65625l-2.109375 0l0 -7.578125q0 -1.28125 -0.25 -1.921875q-0.25 -0.640625 -0.875 -1.015625q-0.625 -0.390625 -1.46875 -0.390625q-1.34375 0 -2.328125 0.859375q-0.984375 0.859375 -0.984375 3.25l0 6.796875l-2.109375 0zm19.96875 0l0 -17.1875l2.109375 0l0 17.1875l-2.109375 0zm13.503906 -1.53125q-1.171875 0.984375 -2.265625 1.40625q-1.078125 0.40625 -2.3125 0.40625q-2.046875 0 -3.15625 -1.0q-1.09375 -1.0 -1.09375 -2.5625q0 -0.921875 0.40625 -1.671875q0.421875 -0.75 1.09375 -1.203125q0.671875 -0.46875 1.515625 -0.703125q0.625 -0.15625 1.875 -0.3125q2.5625 -0.3125 3.765625 -0.734375q0.015625 -0.421875 0.015625 -0.546875q0 -1.28125 -0.609375 -1.8125q-0.796875 -0.71875 -2.390625 -0.71875q-1.5 0 -2.203125 0.53125q-0.703125 0.515625 -1.046875 1.84375l-2.0625 -0.28125q0.28125 -1.328125 0.921875 -2.140625q0.640625 -0.8125 1.859375 -1.25q1.21875 -0.453125 2.828125 -0.453125q1.59375 0 2.59375 0.375q1.0 0.375 1.46875 0.953125q0.46875 0.5625 0.65625 1.4375q0.09375 0.53125 0.09375 1.9375l0 2.8125q0 2.9375 0.140625 3.71875q0.140625 0.78125 0.53125 1.5l-2.203125 0q-0.328125 -0.65625 -0.421875 -1.53125zm-0.171875 -4.71875q-1.15625 0.46875 -3.453125 0.796875q-1.296875 0.1875 -1.84375 0.421875q-0.53125 0.234375 -0.828125 0.6875q-0.28125 0.453125 -0.28125 1.0q0 0.84375 0.625 1.40625q0.640625 0.5625 1.875 0.5625q1.21875 0 2.171875 -0.53125q0.953125 -0.53125 1.390625 -1.453125q0.34375 -0.71875 0.34375 -2.109375l0 -0.78125zm5.3007812 11.046875l-0.234375 -1.984375q0.703125 0.1875 1.21875 0.1875q0.703125 0 1.125 -0.234375q0.421875 -0.234375 0.6875 -0.65625q0.203125 -0.3125 0.640625 -1.5625q0.0625 -0.1875 0.1875 -0.515625l-4.71875 -12.484375l2.265625 0l2.59375 7.21875q0.5 1.359375 0.90625 2.875q0.359375 -1.453125 0.859375 -2.828125l2.671875 -7.265625l2.109375 0l-4.734375 12.671875q-0.765625 2.046875 -1.1875 2.8125q-0.5625 1.046875 -1.296875 1.53125q-0.71875 0.484375 -1.734375 0.484375q-0.609375 0 -1.359375 -0.25zm20.625 -8.8125l2.171875 0.28125q-0.515625 1.90625 -1.90625 2.96875q-1.390625 1.046875 -3.5625 1.046875q-2.734375 0 -4.34375 -1.671875q-1.59375 -1.6875 -1.59375 -4.734375q0 -3.140625 1.609375 -4.875q1.625 -1.734375 4.203125 -1.734375q2.5 0 4.078125 1.703125q1.59375 1.703125 1.59375 4.78125q0 0.1875 -0.015625 0.5625l-9.28125 0q0.109375 2.046875 1.15625 3.140625q1.046875 1.09375 2.609375 1.09375q1.15625 0 1.96875 -0.609375q0.828125 -0.609375 1.3125 -1.953125zm-6.9375 -3.40625l6.953125 0q-0.140625 -1.5625 -0.796875 -2.359375q-1.0 -1.21875 -2.609375 -1.21875q-1.453125 0 -2.453125 0.984375q-0.984375 0.96875 -1.09375 2.59375zm11.738281 7.421875l0 -12.453125l1.890625 0l0 1.890625q0.734375 -1.328125 1.34375 -1.75q0.625 -0.421875 1.359375 -0.421875q1.0625 0 2.171875 0.6875l-0.734375 1.953125q-0.765625 -0.453125 -1.546875 -0.453125q-0.6875 0 -1.25 0.421875q-0.546875 0.40625 -0.78125 1.140625q-0.34375 1.125 -0.34375 2.46875l0 6.515625l-2.109375 0z" fill-rule="nonzero"/></g></svg>